<svg
   version="1.1"
   viewBox="0 200 1876.9116 380.45602"
   preserveAspectRatio="xMidYMid"
   xml:space="preserve"
   id="svg36"
   style=""
   shape-rendering="geometricPrecision"
   width="1876.9116"
   height="380.45602"
   xmlns="http://www.w3.org/2000/svg">
<defs
   id="defs1">
</defs>
<g
   transform="translate(502.89302,504.44103)"
   id="d71c0157-3078-43e4-8a8b-6ed37be1d707">
</g>
<g
   transform="matrix(1.6908494,0,0,1.6908494,899.86926,392.54922)"
   id="g2"
   style="stroke:currentColor;stroke-opacity:1">
<path
   style="opacity:1;fill:none;fill-rule:nonzero;stroke:#f1c22f;stroke-width:2;stroke-linecap:butt;stroke-linejoin:miter;stroke-miterlimit:4;stroke-dasharray:none;stroke-dashoffset:0;stroke-opacity:1"
   transform="translate(-370.19,-690.11)"
   d="m 410.6,724.32 q 14.17,-18.79 11.81,-42.79 c -2.47,-25.19 -21.32,-46.29 -46.76,-48.64 q -26.82,-2.47 -44.5,16.36 c -13.76,14.67 -16.94,35.46 -12.46,54.35 5.32,22.42 23.04,37.35 46.29,38.79 9.95,0.61 21.56,-1.09 30.14,-6.03 0.33063,-0.19055 0.74773,-0.13739 1.02,0.13 l 11.59,11.59 c 0.49357,0.49016 1.28242,0.50779 1.79,0.04 l 12.1,-11.1 c 0.12241,-0.11091 0.19286,-0.26817 0.19475,-0.43471 0.002,-0.16653 -0.0649,-0.32762 -0.18475,-0.44529 l -10.97,-10.98 c -0.22969,-0.22791 -0.25544,-0.58844 -0.06,-0.84"
   stroke-linecap="round"
   id="path2" />
</g>
<g
   transform="matrix(1.6908494,0,0,1.6908494,469.85243,388.50809)"
   id="g3"
   style="stroke:currentColor;stroke-opacity:1">
<path
   style="opacity:1;fill:none;fill-rule:nonzero;stroke:#cf3339;stroke-width:2;stroke-linecap:butt;stroke-linejoin:miter;stroke-miterlimit:4;stroke-dasharray:none;stroke-dashoffset:0;stroke-opacity:1"
   transform="translate(-115.86,-687.71)"
   d="m 126.78,653.79 c 0,-0.12996 0.0516,-0.25459 0.14352,-0.34648 0.0919,-0.0919 0.21652,-0.14352 0.34648,-0.14352 h 30.13 c 0.27062,0 0.49,-0.21938 0.49,-0.49 v -17.95 c 0,-0.27062 -0.21938,-0.49 -0.49,-0.49 H 74.32 c -0.129956,0 -0.254589,0.0516 -0.346482,0.14352 C 73.881625,634.60541 73.83,634.73004 73.83,634.86 v 17.93 c 0,0.12996 0.05163,0.25459 0.143518,0.34648 0.09189,0.0919 0.216526,0.14352 0.346482,0.14352 h 30.95 c 0.12996,0 0.25459,0.0516 0.34648,0.14352 0.0919,0.0919 0.14352,0.21652 0.14352,0.34648 v 86.8 c 0,0.27062 0.21938,0.49 0.49,0.49 h 20.04 c 0.27062,0 0.49,-0.21938 0.49,-0.49 v -86.78"
   stroke-linecap="round"
   id="path3" />
</g>
<g
   transform="matrix(1.6908494,0,0,1.6908494,1696.9863,396.04928)"
   id="g4"
   style="stroke:currentColor;stroke-opacity:1">
<path
   style="opacity:1;fill:none;fill-rule:nonzero;stroke:#f1c22f;stroke-width:2;stroke-linecap:butt;stroke-linejoin:miter;stroke-miterlimit:4;stroke-dasharray:none;stroke-dashoffset:0;stroke-opacity:1"
   transform="translate(-841.61,-692.17)"
   d="m 866.98,724.43 c 6.9e-4,-0.15233 -0.0681,-0.29666 -0.18687,-0.39206 -0.11876,-0.0954 -0.27453,-0.13145 -0.42313,-0.0979 -4.84,1.11 -11.61,1.28 -14.92,-2.86 -2.21,-2.77 -2.29,-6.84 -2.32,-10.58 q -0.04,-8.39 0,-27.88 c 0,-0.15117 0.0611,-0.29616 0.16988,-0.40305 0.10877,-0.1069 0.25629,-0.16695 0.41012,-0.16695 h 16.83 c 0.25405,0 0.46,-0.20595 0.46,-0.46 v -16.51 c 0,-0.15117 -0.0601,-0.29616 -0.16695,-0.40305 -0.10689,-0.1069 -0.25188,-0.16695 -0.40305,-0.16695 h -16.65 c -0.16178,0 -0.31694,-0.0643 -0.43134,-0.17866 C 849.23427,664.21694 849.17,664.06178 849.17,663.9 v -21.5 c 0,-0.25957 -0.21043,-0.47 -0.47,-0.47 h -19.25 c -0.14852,0 -0.29096,0.059 -0.39598,0.16402 -0.10502,0.10502 -0.16402,0.24746 -0.16402,0.39598 v 21.39 c 0,0.34794 -0.28654,0.63 -0.64,0.63 h -11.7 c -0.18778,0 -0.34,0.1567 -0.34,0.35 v 16.6 c 0,0.33137 0.26863,0.6 0.6,0.6 h 11.13 c 0.50974,-3e-5 0.92452,0.41028 0.93,0.92 q 0.05,14.17 -0.13,28.05 -0.15,11.73 0.63,14.48 3.18,11.24 13.9,14.29 11.12,3.16 23.16,1.52 c 0.31309,-0.0401 0.54819,-0.30939 0.55,-0.63 v -16.26"
   stroke-linecap="round"
   id="path4" />
</g>
<g
   transform="matrix(1.6908494,0,0,1.6908494,582.04029,413.93846)"
   id="g5"
   style="stroke:currentColor;stroke-opacity:1">
<path
   style="opacity:1;fill:none;fill-rule:nonzero;stroke:#cf3339;stroke-width:2;stroke-linecap:butt;stroke-linejoin:miter;stroke-miterlimit:4;stroke-dasharray:none;stroke-dashoffset:0;stroke-opacity:1"
   transform="translate(-182.21,-702.75)"
   d="m 222.8399,702.6791 c -0.0385,-22.07478 -18.26041,-39.93816 -40.6997,-39.899 -22.43924,0.0392 -40.5986,17.96606 -40.5601,40.0408 0.0385,22.07478 18.26041,39.93816 40.6997,39.899 22.43924,-0.0392 40.5986,-17.96606 40.5601,-40.0408"
   stroke-linecap="round"
   id="path5" />
</g>
<g
   transform="matrix(1.6908494,0,0,1.6908494,731.76501,438.74323)"
   id="g6"
   style="stroke:currentColor;stroke-opacity:1">
<path
   style="opacity:1;fill:none;fill-rule:nonzero;stroke:#cf3339;stroke-width:2;stroke-linecap:butt;stroke-linejoin:miter;stroke-miterlimit:4;stroke-dasharray:none;stroke-dashoffset:0;stroke-opacity:1"
   transform="translate(-270.76,-717.42)"
   d="m 251.07,673.45 v -8.25 c 0,-0.33689 -0.27311,-0.61 -0.61,-0.61 H 231.7 c -0.20987,0 -0.38,0.17013 -0.38,0.38 v 106.39 c 0,0.28719 0.23729,0.52 0.53,0.52 h 18.8 c 0.12465,0 0.2442,-0.0495 0.33234,-0.13766 0.0881,-0.0881 0.13766,-0.20769 0.13766,-0.33234 v -39.89 c 0.001,-0.11082 0.0744,-0.20977 0.17901,-0.24232 0.1046,-0.0325 0.21526,0.009 0.27099,0.10232 4.15,6.27 13,9.82 20.17,10.38 q 18.13,1.43 29.75,-12.58 c 8.62,-10.38 10.11,-23.88 7.62,-37 q -1.42,-7.45 -6.88,-15.08 c -11.88,-16.61 -37.05,-19.64 -50.59,-3.44 -0.086,0.10782 -0.23139,0.14841 -0.3608,0.10073 -0.1294,-0.0477 -0.21371,-0.17289 -0.2092,-0.31073"
   stroke-linecap="round"
   id="path6" />
</g>
<g
   transform="matrix(1.6908494,0,0,1.6908494,1206.9106,413.31285)"
   id="g7"
   style="stroke:currentColor;stroke-opacity:1">
<path
   style="opacity:1;fill:none;fill-rule:nonzero;stroke:#f1c22f;stroke-width:2;stroke-linecap:butt;stroke-linejoin:miter;stroke-miterlimit:4;stroke-dasharray:none;stroke-dashoffset:0;stroke-opacity:1"
   transform="translate(-551.78,-702.38)"
   d="m 566.98,731.24 -0.02,8.87 c -1e-5,0.22279 0.0874,0.43645 0.24309,0.59398 0.15566,0.15753 0.36677,0.24603 0.58691,0.24602 l 18.68,0.02 c 0.18567,1.8e-4 0.36333,-0.0756 0.49176,-0.20965 0.12842,-0.13409 0.19643,-0.31486 0.18824,-0.50035 q -1.03,-19.63 -1.34,-44.19 c -0.09,-7.83 -0.84,-15.26 -5.31,-21.66 -4.09,-5.88 -12.72,-9.63 -19.73,-10.71 q -11.5,-1.75 -22.43,1.51 -17.03,5.08 -18.67,22.49 c -0.025,0.25379 0.0532,0.50696 0.21678,0.70255 0.16362,0.1956 0.39901,0.3172 0.65322,0.33745 l 15.93,1.25 c 0.42265,0.0353 0.80667,-0.24628 0.9,-0.66 2.06,-9.42 11.48,-10.5 19.39,-9.11 7.84,1.39 9.21,6.43 9.05,13.72 -0.009,0.47784 -0.38308,0.86892 -0.86,0.9 q -7.35,0.55 -21.2,1.53 c -11.6,0.83 -24.95,4.77 -27.01,18.31 -2.66,17.5 10.86,27.58 27.06,27.55 q 12.32,-0.02 19.42,-6.83 c 1.41,-1.36 2.22,-3.04 3.27,-4.33 0.0765,-0.09 0.20131,-0.12456 0.31151,-0.0863 0.1102,0.0382 0.18175,0.14098 0.17849,0.25633"
   stroke-linecap="round"
   id="path7" />
</g>
<g
   transform="matrix(1.6908494,0,0,1.6908494,1437.3733,413.29594)"
   id="g8"
   style="stroke:currentColor;stroke-opacity:1">
<path
   style="opacity:1;fill:none;fill-rule:nonzero;stroke:#f1c22f;stroke-width:2;stroke-linecap:butt;stroke-linejoin:miter;stroke-miterlimit:4;stroke-dasharray:none;stroke-dashoffset:0;stroke-opacity:1"
   transform="translate(-688.06,-702.37)"
   d="m 703.32,731.33 -0.01,8.89 c -10e-6,0.22279 0.0874,0.43645 0.24309,0.59398 0.15566,0.15753 0.36677,0.24603 0.58691,0.24602 l 18.75,0.02 c 0.1875,3.2e-4 0.36681,-0.0768 0.49555,-0.21309 0.12874,-0.13632 0.19548,-0.31974 0.18445,-0.50691 q -1.05,-19.7 -1.37,-44.35 c -0.1,-7.86 -0.85,-15.31 -5.34,-21.74 -4.11,-5.89 -12.78,-9.66 -19.82,-10.73 q -11.54,-1.75 -22.51,1.53 -17.08,5.11 -18.72,22.58 c -0.0249,0.2554 0.0545,0.51001 0.22029,0.70591 0.16576,0.19589 0.40371,0.31639 0.65971,0.33409 l 15.98,1.25 c 0.42265,0.0353 0.80667,-0.24628 0.9,-0.66 2.07,-9.46 11.53,-10.55 19.46,-9.16 7.87,1.39 9.25,6.45 9.09,13.76 -0.004,0.48171 -0.3793,0.8786 -0.86,0.91 q -7.38,0.55 -21.27,1.55 c -11.65,0.84 -25.04,4.8 -27.1,18.39 -2.66,17.57 10.91,27.68 27.18,27.64 q 12.36,-0.03 19.48,-6.87 c 1.42,-1.37 2.23,-3.06 3.28,-4.34 0.0764,-0.09 0.20131,-0.12456 0.31151,-0.0863 0.1102,0.0382 0.18175,0.14098 0.17849,0.25633"
   stroke-linecap="round"
   id="path8" />
</g>
<g
   transform="matrix(1.6908494,0,0,1.6908494,1581.1124,412.65342)"
   id="g9"
   style="stroke:currentColor;stroke-opacity:1">
<path
   style="opacity:1;fill:none;fill-rule:nonzero;stroke:#f1c22f;stroke-width:2;stroke-linecap:butt;stroke-linejoin:miter;stroke-miterlimit:4;stroke-dasharray:none;stroke-dashoffset:0;stroke-opacity:1"
   transform="translate(-773.08,-701.99)"
   d="m 756.33,674.61 v -9.63 c 0,-0.11404 -0.0443,-0.22342 -0.12302,-0.30406 -0.0788,-0.0806 -0.18559,-0.12594 -0.29698,-0.12594 h -18.29 c -0.13791,0 -0.27018,0.0558 -0.3677,0.15523 -0.0975,0.0994 -0.1523,0.23421 -0.1523,0.37477 v 75.24 c 0,0.40317 0.32235,0.73 0.72,0.73 h 19.39 c 0.37555,0 0.68,-0.30445 0.68,-0.68 q -0.07,-25.92 0,-38.52 0.06,-9.64 1.75,-13.36 3.2,-7.06 11.27,-8.23 6.77,-0.99 11.29,1.55 c 5.59,3.15 6.37,9.45 6.42,15.46 q 0.21,23.53 0.02,43.35 c 0,0.11404 0.0453,0.22342 0.12594,0.30406 0.0806,0.0806 0.19002,0.12594 0.30406,0.12594 h 19.4 c 0.22091,0 0.4,-0.17909 0.4,-0.4 q 0.23,-34.14 0.09,-44.64 -0.13,-9.45 -1.46,-13.56 -3.34,-10.32 -12.17,-15.4 c -13.08,-7.54 -29.42,-4.6 -38.66,7.68 -0.0502,0.0646 -0.13612,0.0898 -0.21327,0.0626 -0.0771,-0.0272 -0.1282,-0.10079 -0.12673,-0.18259"
   stroke-linecap="round"
   id="path9" />
</g>
<g
   transform="matrix(1.6908494,0,0,1.6908494,1815.0753,413.36358)"
   id="g10"
   style="stroke:currentColor;stroke-opacity:1">
<path
   style="opacity:1;fill:none;fill-rule:nonzero;stroke:#f1c22f;stroke-width:2;stroke-linecap:butt;stroke-linejoin:miter;stroke-miterlimit:4;stroke-dasharray:none;stroke-dashoffset:0;stroke-opacity:1"
   transform="translate(-911.44,-702.42)"
   d="m 926.72,731.39 v 8.91 c 0,0.46392 0.3716,0.84 0.83,0.84 h 18.78 c 0.1875,3.2e-4 0.36681,-0.0768 0.49555,-0.21309 0.12874,-0.13632 0.19548,-0.31974 0.18445,-0.50691 q -1.07,-19.73 -1.41,-44.41 c -0.11,-7.87 -0.87,-15.33 -5.37,-21.76 -4.12,-5.9 -12.8,-9.66 -19.85,-10.73 q -11.56,-1.74 -22.54,1.55 -17.1,5.13 -18.73,22.63 c -0.0249,0.2554 0.0545,0.51001 0.22029,0.70591 0.16576,0.19589 0.40371,0.31639 0.65971,0.33409 l 16.01,1.24 c 0.42246,0.0342 0.80636,-0.25157 0.9,-0.67 2.06,-9.47 11.53,-10.57 19.48,-9.18 7.88,1.38 9.26,6.45 9.11,13.77 -0.004,0.47819 -0.37797,0.87372 -0.86,0.91 q -7.39,0.56 -21.3,1.57 c -11.66,0.85 -25.07,4.83 -27.12,18.44 -2.65,17.59 10.95,27.7 27.24,27.65 q 12.38,-0.04 19.5,-6.9 c 1.42,-1.37 2.23,-3.06 3.28,-4.35 0.0764,-0.09 0.20132,-0.12462 0.31153,-0.0864 0.11021,0.0382 0.18175,0.14101 0.17847,0.25639"
   stroke-linecap="round"
   id="path10" />
</g>
<g
   transform="matrix(1.6908494,0,0,1.6908494,1067.7875,415.12206)"
   id="g11"
   style="stroke:currentColor;stroke-opacity:1">
<path
   style="opacity:1;fill:none;fill-rule:nonzero;stroke:#f1c22f;stroke-width:2;stroke-linecap:butt;stroke-linejoin:miter;stroke-miterlimit:4;stroke-dasharray:none;stroke-dashoffset:0;stroke-opacity:1"
   transform="translate(-469.49,-703.45)"
   d="m 485.55,730.82 v 9.65 c 0,0.32585 0.26415,0.59 0.59,0.59 h 18.63 c 0.23196,0 0.42,-0.18356 0.42,-0.41 v -75.58 c 0,-0.122 -0.0485,-0.239 -0.13473,-0.32527 C 504.969,664.65846 504.852,664.61 504.73,664.61 h -19.16 c -0.15648,0 -0.30655,0.0622 -0.41719,0.17281 -0.11065,0.11064 -0.17281,0.26071 -0.17281,0.41719 q -0.03,4.19 -0.01,37.81 0,8.06 -0.37,9.47 c -2.14,8.24 -8.76,12.96 -16.9,12.3 -11.37,-0.93 -13.6,-10.7 -13.62,-20.29 q -0.06,-21.97 0.01,-39.27 c 0,-0.33689 -0.27311,-0.61 -0.61,-0.61 h -19.12 c -0.13436,-3e-5 -0.26308,0.054 -0.35714,0.14996 -0.0941,0.096 -0.14555,0.22571 -0.14286,0.36004 q 0.17,31.56 -0.01,44.61 -0.15,10.39 1.43,14.92 c 3.35,9.62 11.85,16.29 22.07,17.39 11.18,1.2 21.36,-1.84 27.67,-11.38 0.0712,-0.10499 0.20238,-0.15152 0.32382,-0.11486 0.12145,0.0367 0.20497,0.14801 0.20618,0.27486"
   stroke-linecap="round"
   id="path11" />
</g>
<g
   transform="matrix(1.6908494,0,0,1.6908494,1329.9368,413.4143)"
   id="g12"
   style="stroke:currentColor;stroke-opacity:1">
<path
   style="opacity:1;fill:none;fill-rule:nonzero;stroke:#f1c22f;stroke-width:2;stroke-linecap:butt;stroke-linejoin:miter;stroke-miterlimit:4;stroke-dasharray:none;stroke-dashoffset:0;stroke-opacity:1"
   transform="translate(-624.53,-702.45)"
   d="m 621.05,672.74 v -7.58 c 0,-0.33137 -0.26415,-0.6 -0.59,-0.6 h -19.11 c -0.11139,0 -0.21822,0.0443 -0.29698,0.12302 -0.0788,0.0788 -0.12302,0.18559 -0.12302,0.29698 v 75.44 c 0,0.34794 0.28206,0.63 0.63,0.63 h 19.45 c 0.19882,0 0.36,-0.16118 0.36,-0.36 q 0.04,-12.46 -0.13,-31.92 c -0.11,-11.75 -0.85,-25.21 13.36,-26.88 q 7.07,-0.84 13,1.99 c 0.11568,0.0555 0.25185,0.0471 0.35984,-0.0222 0.10799,-0.0693 0.17238,-0.18956 0.17016,-0.31784 v -17.92 c 8.1e-4,-0.35365 -0.252,-0.65702 -0.6,-0.72 q -8.76,-1.57 -16.64,1.23 -5.55,1.98 -9.17,6.83 c -0.0943,0.13067 -0.26234,0.18526 -0.41545,0.13499 -0.1531,-0.0503 -0.25606,-0.19385 -0.25455,-0.35499"
   stroke-linecap="round"
   id="path12" />
</g>
<g
   transform="matrix(1.6908494,0,0,1.6908494,898.75329,388.22064)"
   id="g17"
   style="stroke:currentColor;stroke-opacity:1">
<path
   style="opacity:1;fill:none;fill-rule:nonzero;stroke:#f1c22f;stroke-width:2;stroke-linecap:butt;stroke-linejoin:miter;stroke-miterlimit:4;stroke-dasharray:none;stroke-dashoffset:0;stroke-opacity:1"
   transform="translate(-369.52,-687.54)"
   d="m 378.7,721.34 -10.18,-10.17 c -0.26378,-0.26521 -0.40764,-0.62675 -0.3982,-1.00069 0.009,-0.37393 0.17137,-0.72775 0.4482,-0.97931 l 11.91,-10.94 c 0.40898,-0.37139 1.03696,-0.35822 1.43,0.03 l 11.74,11.74 c 0.17116,0.17317 0.41113,0.26017 0.6535,0.2369 0.24237,-0.0233 0.46141,-0.15433 0.5965,-0.3569 q 5.23,-7.7 5.97,-17.29 c 0.29,-3.7 0.41,-10.06 -0.46,-14.05 -4.86,-22.44 -29.93,-35.23 -49.25,-19.63 -19.54,15.77 -17.69,53.22 7.54,62.39 6.14,2.22 13.76,2.16 19.86,0.54 0.10771,-0.0281 0.19206,-0.11185 0.221,-0.21935 0.0289,-0.10749 -0.002,-0.22224 -0.081,-0.30065"
   stroke-linecap="round"
   id="path17" />
</g>
<g
   transform="matrix(1.6908494,0,0,1.6908494,582.22628,413.71865)"
   id="g18"
   style="stroke:currentColor;stroke-opacity:1">
<path
   style="opacity:1;fill:none;fill-rule:nonzero;stroke:#cf3339;stroke-width:2;stroke-linecap:butt;stroke-linejoin:miter;stroke-miterlimit:4;stroke-dasharray:none;stroke-dashoffset:0;stroke-opacity:1"
   transform="translate(-182.32,-702.62)"
   d="m 183.4659,681.461 c -10.83651,-0.58684 -20.13425,8.41062 -20.7671,20.0964 -0.63286,11.68577 7.63881,21.63471 18.4753,22.2216 10.83651,0.58684 20.13425,-8.41062 20.7671,-20.0964 0.63286,-11.68577 -7.63881,-21.63471 -18.4753,-22.2216"
   stroke-linecap="round"
   id="path18" />
</g>
<g
   transform="matrix(1.6908494,0,0,1.6908494,730.71668,413.63411)"
   id="g19"
   style="stroke:currentColor;stroke-opacity:1">
<path
   style="opacity:1;fill:none;fill-rule:nonzero;stroke:#cf3339;stroke-width:2;stroke-linecap:butt;stroke-linejoin:miter;stroke-miterlimit:4;stroke-dasharray:none;stroke-dashoffset:0;stroke-opacity:1"
   transform="translate(-270.14,-702.57)"
   d="m 270.5911,681.0347 c -5.10431,-0.10693 -10.04709,2.05943 -13.74098,6.02249 -3.69389,3.96306 -5.8363,9.39818 -5.95592,15.10971 -0.11963,5.71151 1.79331,11.23157 5.318,15.34581 3.52469,4.11425 8.3724,6.48568 13.4767,6.59259 5.10431,0.10693 10.04709,-2.05943 13.74098,-6.02249 3.69389,-3.96306 5.8363,-9.39818 5.95592,-15.10971 0.11963,-5.71151 -1.79331,-11.23157 -5.318,-15.34581 -3.52469,-4.11425 -8.3724,-6.48568 -13.4767,-6.59259"
   stroke-linecap="round"
   id="path19" />
</g>
<g
   transform="matrix(1.6908494,0,0,1.6908494,1206.4541,437.57654)"
   id="g20"
   style="fill:none;stroke:currentColor;stroke-opacity:1">
<path
   style="opacity:1;fill:none;fill-rule:nonzero;stroke:#f1c22f;stroke-width:2;stroke-linecap:butt;stroke-linejoin:miter;stroke-miterlimit:4;stroke-dasharray:none;stroke-dashoffset:0;stroke-opacity:1"
   transform="translate(-551.5,-716.73)"
   d="m 566.04,707.47 c -0.0521,-0.20322 -0.24051,-0.34135 -0.45,-0.33 q -9.58,0.7 -15.84,1.36 c -5.57,0.59 -12.52,2.35 -12.94,8.95 -0.57,9.14 11.72,9.79 17.67,8.18 q 10.16,-2.76 11.44,-13.73 c 0.18,-1.49 0.49,-3.11 0.12,-4.43"
   stroke-linecap="round"
   id="path20" />
</g>
<g
   transform="matrix(1.6908494,0,0,1.6908494,1436.8153,437.50891)"
   id="g21"
   style="fill:none;stroke:currentColor;stroke-opacity:1">
<path
   style="opacity:1;fill:none;fill-rule:nonzero;stroke:#f1c22f;stroke-width:2;stroke-linecap:butt;stroke-linejoin:miter;stroke-miterlimit:4;stroke-dasharray:none;stroke-dashoffset:0;stroke-opacity:1"
   transform="translate(-687.73,-716.69)"
   d="m 702.37,707.41 c -0.0481,-0.20721 -0.23753,-0.35034 -0.45,-0.34 q -9.64,0.68 -15.94,1.33 c -5.6,0.57 -12.59,2.32 -13.03,8.96 -0.6,9.19 11.75,9.88 17.74,8.28 q 10.23,-2.75 11.55,-13.78 c 0.18,-1.5 0.5,-3.12 0.13,-4.45"
   stroke-linecap="round"
   id="path21" />
</g>
<g
   transform="matrix(1.6908494,0,0,1.6908494,1814.3482,437.55963)"
   id="g22"
   style="stroke:currentColor;stroke-opacity:1">
<path
   style="opacity:1;fill:none;fill-rule:nonzero;stroke:#f1c22f;stroke-width:2;stroke-linecap:butt;stroke-linejoin:miter;stroke-miterlimit:4;stroke-dasharray:none;stroke-dashoffset:0;stroke-opacity:1"
   transform="translate(-911.03,-716.72)"
   d="m 925.74,707.45 c -0.0521,-0.20322 -0.24051,-0.34135 -0.45,-0.33 q -9.67,0.62 -15.99,1.23 c -5.62,0.55 -12.64,2.26 -13.12,8.92 -0.66,9.21 11.73,9.97 17.75,8.4 q 10.27,-2.7 11.65,-13.75 c 0.19,-1.5 0.52,-3.13 0.16,-4.47"
   stroke-linecap="round"
   id="path22" />
</g>
<g
   id="layer1"
   style="display:inline"
   transform="translate(-37.106978,-35.558966)"><g
     transform="translate(227.55419,425.78698)"
     id="g23">
<path
   style="opacity:1;fill:#0047ba;fill-rule:nonzero;stroke:none;stroke-width:1;stroke-linecap:butt;stroke-linejoin:miter;stroke-miterlimit:4;stroke-dasharray:none;stroke-dashoffset:0"
   transform="translate(-512.22,-375.01)"
   d="M 698.1598,338.867 C 718.09995,441.45027 651.01659,540.79223 548.3249,560.7535 499.01059,570.33923 447.91216,559.963 406.2707,531.90746 364.62924,503.85193 335.8558,460.41525 326.2802,411.153 306.34005,308.56973 373.42341,209.22777 476.1151,189.2665 c 49.31431,-9.58573 100.41274,0.7905 142.0542,28.84604 41.64146,28.05553 70.4149,71.49221 79.9905,120.75446 z m -23.079,30.45 C 673.57524,326.20315 654.98547,285.45388 623.40104,256.03357 591.81662,226.61325 549.82476,210.93185 506.6632,212.4391 c -89.87922,3.13868 -160.19916,78.46402 -157.064,168.2439 1.50556,43.11385 20.09533,83.86312 51.67976,113.28343 31.58442,29.42032 73.57628,45.10172 116.73784,43.59447 89.87922,-3.13868 160.19916,-78.46402 157.064,-168.2439 z"
   stroke-linecap="round"
   id="path23" />
</g><g
     transform="translate(227.67419,425.77698)"
     id="g13"
     style="stroke:currentColor;stroke-opacity:1">
<path
   style="opacity:1;fill:none;fill-rule:nonzero;stroke:#0047ba;stroke-width:2;stroke-linecap:butt;stroke-linejoin:miter;stroke-miterlimit:4;stroke-dasharray:none;stroke-dashoffset:0;stroke-opacity:1"
   transform="translate(-512.34,-375)"
   d="M 675.0808,369.317 C 673.57524,326.20315 654.98547,285.45388 623.40104,256.03357 591.81662,226.61325 549.82476,210.93185 506.6632,212.4391 c -89.87922,3.13868 -160.19916,78.46402 -157.064,168.2439 1.50556,43.11385 20.09533,83.86312 51.67976,113.28343 31.58442,29.42032 73.57628,45.10172 116.73784,43.59447 89.87922,-3.13868 160.19916,-78.46402 157.064,-168.2439"
   stroke-linecap="round"
   id="path13" />
</g><g
     transform="translate(227.55419,425.78698)"
     id="g1"
     style="stroke:currentColor;stroke-opacity:1">
<path
   style="opacity:1;fill:none;fill-rule:nonzero;stroke:#0047ba;stroke-width:2;stroke-linecap:butt;stroke-linejoin:miter;stroke-miterlimit:4;stroke-dasharray:none;stroke-dashoffset:0;stroke-opacity:1"
   transform="translate(-512.22,-375.01)"
   d="M 698.1598,338.867 C 688.5842,289.60475 659.81076,246.16807 618.1693,218.11254 576.52784,190.057 525.42941,179.68077 476.1151,189.2665 373.42341,209.22777 306.34005,308.56973 326.2802,411.153 c 9.5756,49.26225 38.34904,92.69893 79.9905,120.75446 41.64146,28.05554 92.73989,38.43177 142.0542,28.84604 C 651.01659,540.79223 718.09995,441.45027 698.1598,338.867"
   stroke-linecap="round"
   id="path1" />
</g><g
     transform="translate(302.33419,511.00698)"
     id="g25">
<circle
   style="opacity:1;fill:#0047ba;fill-rule:nonzero;stroke:none;stroke-width:1;stroke-linecap:butt;stroke-linejoin:miter;stroke-miterlimit:4;stroke-dasharray:none;stroke-dashoffset:0"
   cx="0"
   cy="0"
   r="20.950001"
   id="circle24" />
</g><g
     transform="translate(302.33419,511.00698)"
     id="g15"
     style="stroke:currentColor;stroke-opacity:1">
<path
   style="opacity:1;fill:none;fill-rule:nonzero;stroke:#0047ba;stroke-width:2;stroke-linecap:butt;stroke-linejoin:miter;stroke-miterlimit:4;stroke-dasharray:none;stroke-dashoffset:0;stroke-opacity:1"
   transform="translate(-587,-460.23)"
   d="m 607.95,460.23 c 0,-5.55629 -2.20723,-10.885 -6.13611,-14.81389 C 597.885,441.48723 592.55629,439.28 587,439.28 c -5.55629,0 -10.885,2.20723 -14.81389,6.13611 -3.92888,3.92889 -6.13611,9.2576 -6.13611,14.81389 0,5.55629 2.20723,10.885 6.13611,14.81389 3.92889,3.92888 9.2576,6.13611 14.81389,6.13611 5.55629,0 10.885,-2.20723 14.81389,-6.13611 3.92888,-3.92889 6.13611,-9.2576 6.13611,-14.81389"
   stroke-linecap="round"
   id="path15" />
</g><g
     transform="translate(237.69419,424.05698)"
     id="g24">
<path
   style="opacity:1;fill:#0047ba;fill-rule:nonzero;stroke:none;stroke-width:1;stroke-linecap:butt;stroke-linejoin:miter;stroke-miterlimit:4;stroke-dasharray:none;stroke-dashoffset:0"
   transform="translate(-522.36,-373.27)"
   d="m 600.61,387.84 -140.32,80.42 c -5.03576,2.88601 -11.22761,2.87083 -16.24915,-0.0399 -5.02154,-2.91068 -8.11223,-8.27602 -8.11085,-14.08015 l 0.05,-161.74 c 0.002,-5.81684 3.10938,-11.19007 8.15001,-14.09312 5.04062,-2.90305 11.24763,-2.89424 16.27999,0.0231 l 140.27,81.31 c 5.03632,2.91629 8.13144,8.30052 8.11699,14.12024 -0.0145,5.81971 -3.13626,11.18851 -8.18699,14.07976 z m -137.52,47.53 c -10e-4,0.14355 0.0744,0.27678 0.19844,0.34911 0.12399,0.0723 0.27724,0.0727 0.40156,8.9e-4 l 107.19,-61.64 c 0.12239,-0.0718 0.19758,-0.20309 0.19758,-0.345 0,-0.14191 -0.0752,-0.27319 -0.19758,-0.345 L 463.91,311.38 c -0.12333,-0.0761 -0.27817,-0.0795 -0.40474,-0.009 -0.12658,0.0705 -0.2051,0.20404 -0.20526,0.34895 z"
   stroke-linecap="round"
   id="path24" />
</g><g
     transform="translate(237.69419,424.05698)"
     id="g14"
     style="stroke:currentColor;stroke-opacity:1">
<path
   style="opacity:1;fill:none;fill-rule:nonzero;stroke:#0047ba;stroke-width:2;stroke-linecap:butt;stroke-linejoin:miter;stroke-miterlimit:4;stroke-dasharray:none;stroke-dashoffset:0;stroke-opacity:1"
   transform="translate(-522.36,-373.27)"
   d="m 600.61,387.84 c 5.05073,-2.89125 8.17254,-8.26005 8.18699,-14.07976 0.0144,-5.81972 -3.08067,-11.20395 -8.11699,-14.12024 L 460.41,278.33 c -5.03236,-2.91736 -11.23937,-2.92617 -16.27999,-0.0231 -5.04063,2.90305 -8.14795,8.27628 -8.15001,14.09312 l -0.05,161.74 c -0.001,5.80413 3.08931,11.16947 8.11085,14.08015 5.02154,2.91068 11.21339,2.92586 16.24915,0.0399 l 140.32,-80.42"
   stroke-linecap="round"
   id="path14" />
</g><g
     transform="translate(232.41419,424.32698)"
     id="g16"
     style="stroke:currentColor;stroke-opacity:1">
<path
   style="opacity:1;fill:none;fill-rule:nonzero;stroke:#0047ba;stroke-width:2;stroke-linecap:butt;stroke-linejoin:miter;stroke-miterlimit:4;stroke-dasharray:none;stroke-dashoffset:0;stroke-opacity:1"
   transform="translate(-517.08,-373.55)"
   d="m 463.09,435.37 c -10e-4,0.14355 0.0744,0.27678 0.19844,0.34911 0.12399,0.0723 0.27724,0.0727 0.40156,8.9e-4 l 107.19,-61.64 c 0.12239,-0.0718 0.19758,-0.20309 0.19758,-0.345 0,-0.14191 -0.0752,-0.27319 -0.19758,-0.345 L 463.91,311.38 c -0.12333,-0.0761 -0.27817,-0.0795 -0.40474,-0.009 -0.12658,0.0705 -0.2051,0.20404 -0.20526,0.34895 l -0.21,123.65"
   stroke-linecap="round"
   id="path16" />
</g><g
     transform="matrix(1.6908494,0,0,1.6908494,936.97624,428.10819)"
     id="g26">
<path
   style="opacity:1;fill:#f1c22f;fill-rule:nonzero;stroke:none;stroke-width:1;stroke-linecap:butt;stroke-linejoin:miter;stroke-miterlimit:4;stroke-dasharray:none;stroke-dashoffset:0"
   transform="translate(-370.19,-690.11)"
   d="m 410.66,725.16 10.97,10.98 c 0.11981,0.11767 0.18664,0.27876 0.18475,0.44529 -0.002,0.16654 -0.0723,0.3238 -0.19475,0.43471 l -12.1,11.1 c -0.50758,0.46779 -1.29643,0.45016 -1.79,-0.04 l -11.59,-11.59 c -0.27227,-0.26739 -0.68937,-0.32055 -1.02,-0.13 -8.58,4.94 -20.19,6.64 -30.14,6.03 -23.25,-1.44 -40.97,-16.37 -46.29,-38.79 -4.48,-18.89 -1.3,-39.68 12.46,-54.35 q 17.68,-18.83 44.5,-16.36 c 25.44,2.35 44.29,23.45 46.76,48.64 q 2.36,24 -11.81,42.79 c -0.19544,0.25156 -0.16969,0.61209 0.06,0.84 z m -31.96,-3.82 -10.18,-10.17 c -0.26378,-0.26521 -0.40764,-0.62675 -0.3982,-1.00069 0.009,-0.37393 0.17137,-0.72775 0.4482,-0.97931 l 11.91,-10.94 c 0.40898,-0.37139 1.03696,-0.35822 1.43,0.03 l 11.74,11.74 c 0.17116,0.17317 0.41113,0.26017 0.6535,0.2369 0.24237,-0.0233 0.46141,-0.15433 0.5965,-0.3569 q 5.23,-7.7 5.97,-17.29 c 0.29,-3.7 0.41,-10.06 -0.46,-14.05 -4.86,-22.44 -29.93,-35.23 -49.25,-19.63 -19.54,15.77 -17.69,53.22 7.54,62.39 6.14,2.22 13.76,2.16 19.86,0.54 0.10771,-0.0281 0.19206,-0.11185 0.221,-0.21935 0.0289,-0.10749 -0.002,-0.22224 -0.081,-0.30065 z"
   stroke-linecap="round"
   id="path25" />
</g><g
     transform="matrix(1.6908494,0,0,1.6908494,506.95941,424.06706)"
     id="g27">
<path
   style="opacity:1;fill:#cf3339;fill-rule:nonzero;stroke:none;stroke-width:1;stroke-linecap:butt;stroke-linejoin:miter;stroke-miterlimit:4;stroke-dasharray:none;stroke-dashoffset:0"
   transform="translate(-115.86,-687.71)"
   d="m 126.78,653.79 v 86.78 c 0,0.27062 -0.21938,0.49 -0.49,0.49 h -20.04 c -0.27062,0 -0.49,-0.21938 -0.49,-0.49 v -86.8 c 0,-0.12996 -0.0516,-0.25459 -0.14352,-0.34648 -0.0919,-0.0919 -0.21652,-0.14352 -0.34648,-0.14352 H 74.32 c -0.129956,0 -0.254589,-0.0516 -0.346482,-0.14352 C 73.881625,653.04459 73.83,652.91996 73.83,652.79 v -17.93 c 0,-0.12996 0.05163,-0.25459 0.143518,-0.34648 0.09189,-0.0919 0.216526,-0.14352 0.346482,-0.14352 h 83.08 c 0.27062,0 0.49,0.21938 0.49,0.49 v 17.95 c 0,0.27062 -0.21938,0.49 -0.49,0.49 h -30.13 c -0.12996,0 -0.25459,0.0516 -0.34648,0.14352 -0.0919,0.0919 -0.14352,0.21652 -0.14352,0.34648 z"
   stroke-linecap="round"
   id="path26" />
</g><g
     transform="matrix(1.6908494,0,0,1.6908494,1734.0934,431.60825)"
     id="g28">
<path
   style="opacity:1;fill:#f1c22f;fill-rule:nonzero;stroke:none;stroke-width:1;stroke-linecap:butt;stroke-linejoin:miter;stroke-miterlimit:4;stroke-dasharray:none;stroke-dashoffset:0"
   transform="translate(-841.61,-692.17)"
   d="m 866.98,724.43 v 16.26 c -0.002,0.32061 -0.23691,0.5899 -0.55,0.63 q -12.04,1.64 -23.16,-1.52 -10.72,-3.05 -13.9,-14.29 -0.78,-2.75 -0.63,-14.48 0.18,-13.88 0.13,-28.05 c -0.005,-0.50972 -0.42026,-0.92003 -0.93,-0.92 h -11.13 c -0.33137,0 -0.6,-0.26863 -0.6,-0.6 v -16.6 c 0,-0.1933 0.15222,-0.35 0.34,-0.35 h 11.7 c 0.35346,0 0.64,-0.28206 0.64,-0.63 v -21.39 c 0,-0.14852 0.059,-0.29096 0.16402,-0.39598 0.10502,-0.10502 0.24746,-0.16402 0.39598,-0.16402 h 19.25 c 0.25957,0 0.47,0.21043 0.47,0.47 v 21.5 c 0,0.16178 0.0643,0.31694 0.17866,0.43134 0.1144,0.11439 0.26956,0.17866 0.43134,0.17866 h 16.65 c 0.15117,0 0.29616,0.0601 0.40305,0.16695 0.1069,0.10689 0.16695,0.25188 0.16695,0.40305 v 16.51 c 0,0.25405 -0.20595,0.46 -0.46,0.46 h -16.83 c -0.15383,0 -0.30135,0.0601 -0.41012,0.16695 -0.10877,0.10689 -0.16988,0.25188 -0.16988,0.40305 q -0.04,19.49 0,27.88 c 0.03,3.74 0.11,7.81 2.32,10.58 3.31,4.14 10.08,3.97 14.92,2.86 0.1486,-0.0335 0.30437,0.003 0.42313,0.0979 0.11876,0.0954 0.18756,0.23973 0.18687,0.39206 z"
   stroke-linecap="round"
   id="path27" />
</g><g
     transform="matrix(1.6908494,0,0,1.6908494,619.14727,449.49744)"
     id="g29">
<path
   style="opacity:1;fill:#cf3339;fill-rule:nonzero;stroke:none;stroke-width:1;stroke-linecap:butt;stroke-linejoin:miter;stroke-miterlimit:4;stroke-dasharray:none;stroke-dashoffset:0"
   transform="translate(-182.21,-702.75)"
   d="m 222.8399,702.6791 c 0.0385,22.07474 -18.12086,40.00159 -40.5601,40.0408 -22.43929,0.0392 -40.66116,-17.82422 -40.6997,-39.899 -0.0385,-22.07474 18.12086,-40.00159 40.5601,-40.0408 22.43929,-0.0392 40.66116,17.82422 40.6997,39.899 z m -39.374,-21.2181 c -10.83651,-0.58684 -20.13425,8.41062 -20.7671,20.0964 -0.63286,11.68577 7.63881,21.63471 18.4753,22.2216 10.83651,0.58684 20.13425,-8.41062 20.7671,-20.0964 0.63286,-11.68577 -7.63881,-21.63471 -18.4753,-22.2216 z"
   stroke-linecap="round"
   id="path28" />
</g><g
     transform="matrix(1.6908494,0,0,1.6908494,768.87199,474.3022)"
     id="g30">
<path
   style="opacity:1;fill:#cf3339;fill-rule:nonzero;stroke:none;stroke-width:1;stroke-linecap:butt;stroke-linejoin:miter;stroke-miterlimit:4;stroke-dasharray:none;stroke-dashoffset:0"
   transform="translate(-270.76,-717.42)"
   d="m 251.07,673.45 c -0.005,0.13784 0.0798,0.26306 0.2092,0.31073 0.12941,0.0477 0.27481,0.007 0.3608,-0.10073 13.54,-16.2 38.71,-13.17 50.59,3.44 q 5.46,7.63 6.88,15.08 c 2.49,13.12 1,26.62 -7.62,37 q -11.62,14.01 -29.75,12.58 c -7.17,-0.56 -16.02,-4.11 -20.17,-10.38 -0.0557,-0.0931 -0.16639,-0.13486 -0.27099,-0.10232 -0.1046,0.0326 -0.1777,0.1315 -0.17901,0.24232 v 39.89 c 0,0.12465 -0.0495,0.2442 -0.13766,0.33234 -0.0881,0.0881 -0.20769,0.13766 -0.33234,0.13766 h -18.8 c -0.29271,0 -0.53,-0.23281 -0.53,-0.52 V 664.97 c 0,-0.20987 0.17013,-0.38 0.38,-0.38 h 18.76 c 0.33689,0 0.61,0.27311 0.61,0.61 z m 19.5211,7.5847 c -5.10431,-0.10693 -10.04709,2.05943 -13.74098,6.02249 -3.69389,3.96306 -5.8363,9.39818 -5.95592,15.10971 -0.11963,5.71151 1.79331,11.23157 5.318,15.34581 3.52469,4.11425 8.3724,6.48568 13.4767,6.59259 5.10431,0.10693 10.04709,-2.05943 13.74098,-6.02249 3.69389,-3.96306 5.8363,-9.39818 5.95592,-15.10971 0.11963,-5.71151 -1.79331,-11.23157 -5.318,-15.34581 -3.52469,-4.11425 -8.3724,-6.48568 -13.4767,-6.59259 z"
   stroke-linecap="round"
   id="path29" />
</g><g
     transform="matrix(1.6908494,0,0,1.6908494,1244.0176,448.87182)"
     id="g31">
<path
   style="opacity:1;fill:#f1c22f;fill-rule:nonzero;stroke:none;stroke-width:1;stroke-linecap:butt;stroke-linejoin:miter;stroke-miterlimit:4;stroke-dasharray:none;stroke-dashoffset:0"
   transform="translate(-551.78,-702.38)"
   d="m 566.98,731.24 c 0.003,-0.11535 -0.0683,-0.2181 -0.17849,-0.25633 -0.1102,-0.0382 -0.23506,-0.004 -0.31151,0.0863 -1.05,1.29 -1.86,2.97 -3.27,4.33 q -7.1,6.81 -19.42,6.83 c -16.2,0.03 -29.72,-10.05 -27.06,-27.55 2.06,-13.54 15.41,-17.48 27.01,-18.31 q 13.85,-0.98 21.2,-1.53 c 0.47692,-0.0311 0.85062,-0.42216 0.86,-0.9 0.16,-7.29 -1.21,-12.33 -9.05,-13.72 -7.91,-1.39 -17.33,-0.31 -19.39,9.11 -0.0933,0.41372 -0.47735,0.69534 -0.9,0.66 l -15.93,-1.25 c -0.25421,-0.0203 -0.4896,-0.14185 -0.65322,-0.33745 -0.16363,-0.19559 -0.24174,-0.44876 -0.21678,-0.70255 q 1.64,-17.41 18.67,-22.49 10.93,-3.26 22.43,-1.51 c 7.01,1.08 15.64,4.83 19.73,10.71 4.47,6.4 5.22,13.83 5.31,21.66 q 0.31,24.56 1.34,44.19 c 0.008,0.18549 -0.0598,0.36626 -0.18824,0.50035 -0.12843,0.13408 -0.30609,0.20983 -0.49176,0.20965 l -18.68,-0.02 c -0.22014,10e-6 -0.43125,-0.0885 -0.58691,-0.24602 -0.15566,-0.15753 -0.2431,-0.37119 -0.24309,-0.59398 z m -0.94,-23.77 c -0.0521,-0.20322 -0.24051,-0.34135 -0.45,-0.33 q -9.58,0.7 -15.84,1.36 c -5.57,0.59 -12.52,2.35 -12.94,8.95 -0.57,9.14 11.72,9.79 17.67,8.18 q 10.16,-2.76 11.44,-13.73 c 0.18,-1.49 0.49,-3.11 0.12,-4.43 z"
   stroke-linecap="round"
   id="path30" />
</g><g
     transform="matrix(1.6908494,0,0,1.6908494,1474.4803,448.85491)"
     id="g32">
<path
   style="opacity:1;fill:#f1c22f;fill-rule:nonzero;stroke:none;stroke-width:1;stroke-linecap:butt;stroke-linejoin:miter;stroke-miterlimit:4;stroke-dasharray:none;stroke-dashoffset:0"
   transform="translate(-688.06,-702.37)"
   d="m 703.32,731.33 c 0.003,-0.11535 -0.0683,-0.2181 -0.17849,-0.25633 -0.1102,-0.0382 -0.23506,-0.004 -0.31151,0.0863 -1.05,1.28 -1.86,2.97 -3.28,4.34 q -7.12,6.84 -19.48,6.87 c -16.27,0.04 -29.84,-10.07 -27.18,-27.64 2.06,-13.59 15.45,-17.55 27.1,-18.39 q 13.89,-1 21.27,-1.55 c 0.4807,-0.0314 0.85579,-0.42829 0.86,-0.91 0.16,-7.31 -1.22,-12.37 -9.09,-13.76 -7.93,-1.39 -17.39,-0.3 -19.46,9.16 -0.0933,0.41372 -0.47735,0.69534 -0.9,0.66 l -15.98,-1.25 c -0.256,-0.0177 -0.49395,-0.1382 -0.65971,-0.33409 -0.16575,-0.1959 -0.24521,-0.45051 -0.22029,-0.70591 q 1.64,-17.47 18.72,-22.58 10.97,-3.28 22.51,-1.53 c 7.04,1.07 15.71,4.84 19.82,10.73 4.49,6.43 5.24,13.88 5.34,21.74 q 0.32,24.65 1.37,44.35 c 0.011,0.18717 -0.0557,0.37059 -0.18445,0.50691 -0.12874,0.13631 -0.30805,0.21341 -0.49555,0.21309 l -18.75,-0.02 c -0.22014,10e-6 -0.43125,-0.0885 -0.58691,-0.24602 -0.15566,-0.15753 -0.2431,-0.37119 -0.24309,-0.59398 z m -0.95,-23.92 c -0.0481,-0.20721 -0.23753,-0.35034 -0.45,-0.34 q -9.64,0.68 -15.94,1.33 c -5.6,0.57 -12.59,2.32 -13.03,8.96 -0.6,9.19 11.75,9.88 17.74,8.28 q 10.23,-2.75 11.55,-13.78 c 0.18,-1.5 0.5,-3.12 0.13,-4.45 z"
   stroke-linecap="round"
   id="path31" />
</g><g
     transform="matrix(1.6908494,0,0,1.6908494,1618.2194,448.21239)"
     id="g33">
<path
   style="opacity:1;fill:#f1c22f;fill-rule:nonzero;stroke:none;stroke-width:1;stroke-linecap:butt;stroke-linejoin:miter;stroke-miterlimit:4;stroke-dasharray:none;stroke-dashoffset:0"
   transform="translate(-773.08,-701.99)"
   d="m 756.33,674.61 c -0.001,0.0818 0.0496,0.15536 0.12673,0.18259 0.0771,0.0272 0.16307,0.002 0.21327,-0.0626 9.24,-12.28 25.58,-15.22 38.66,-7.68 q 8.83,5.08 12.17,15.4 1.33,4.11 1.46,13.56 0.14,10.5 -0.09,44.64 c 0,0.22091 -0.17909,0.4 -0.4,0.4 h -19.4 c -0.11404,0 -0.22342,-0.0453 -0.30406,-0.12594 -0.0806,-0.0806 -0.12594,-0.19002 -0.12594,-0.30406 q 0.19,-19.82 -0.02,-43.35 c -0.05,-6.01 -0.83,-12.31 -6.42,-15.46 q -4.52,-2.54 -11.29,-1.55 -8.07,1.17 -11.27,8.23 -1.69,3.72 -1.75,13.36 -0.07,12.6 0,38.52 c 0,0.37555 -0.30445,0.68 -0.68,0.68 h -19.39 c -0.39765,0 -0.72,-0.32683 -0.72,-0.73 v -75.24 c 0,-0.14056 0.0548,-0.27537 0.1523,-0.37477 0.0975,-0.0994 0.22979,-0.15523 0.3677,-0.15523 h 18.29 c 0.11139,0 0.21822,0.0453 0.29698,0.12594 0.0788,0.0806 0.12302,0.19002 0.12302,0.30406 z"
   stroke-linecap="round"
   id="path32" />
</g><g
     transform="matrix(1.6908494,0,0,1.6908494,1852.1823,448.92255)"
     id="g34">
<path
   style="opacity:1;fill:#f1c22f;fill-rule:nonzero;stroke:none;stroke-width:1;stroke-linecap:butt;stroke-linejoin:miter;stroke-miterlimit:4;stroke-dasharray:none;stroke-dashoffset:0"
   transform="translate(-911.44,-702.42)"
   d="m 926.23,731.22 c -1.05,1.29 -1.86,2.98 -3.28,4.35 q -7.12,6.86 -19.5,6.9 c -16.29,0.05 -29.89,-10.06 -27.24,-27.65 2.05,-13.61 15.46,-17.59 27.12,-18.44 q 13.91,-1.01 21.3,-1.57 c 0.48203,-0.0363 0.85582,-0.43181 0.86,-0.91 0.15,-7.32 -1.23,-12.39 -9.11,-13.77 -7.95,-1.39 -17.42,-0.29 -19.48,9.18 -0.0936,0.41843 -0.47754,0.70423 -0.9,0.67 l -16.01,-1.24 c -0.256,-0.0177 -0.49395,-0.1382 -0.65971,-0.33409 -0.16575,-0.1959 -0.24521,-0.45051 -0.22029,-0.70591 q 1.63,-17.5 18.73,-22.63 10.98,-3.29 22.54,-1.55 c 7.05,1.07 15.73,4.83 19.85,10.73 4.5,6.43 5.26,13.89 5.37,21.76 q 0.34,24.68 1.41,44.41 c 0.011,0.18717 -0.0557,0.37059 -0.18445,0.50691 -0.12874,0.13631 -0.30805,0.21341 -0.49555,0.21309 h -18.78 c -0.4584,0 -0.83,-0.37608 -0.83,-0.84 v -8.91 c 0.003,-0.11538 -0.0683,-0.21815 -0.17847,-0.25639 -0.11021,-0.0382 -0.23509,-0.004 -0.31153,0.0864 z m -0.49,-23.77 c -0.0521,-0.20322 -0.24051,-0.34135 -0.45,-0.33 q -9.67,0.62 -15.99,1.23 c -5.62,0.55 -12.64,2.26 -13.12,8.92 -0.66,9.21 11.73,9.97 17.75,8.4 q 10.27,-2.7 11.65,-13.75 c 0.19,-1.5 0.52,-3.13 0.16,-4.47 z"
   stroke-linecap="round"
   id="path33" />
</g><g
     transform="matrix(1.6908494,0,0,1.6908494,1104.8945,451.28974)"
     id="g35">
<path
   style="opacity:1;fill:#f1c22f;fill-rule:nonzero;stroke:none;stroke-width:1;stroke-linecap:butt;stroke-linejoin:miter;stroke-miterlimit:4;stroke-dasharray:none;stroke-dashoffset:0"
   transform="translate(-469.49,-703.45)"
   d="m 485.55,730.82 c -0.001,-0.12685 -0.0847,-0.23819 -0.20618,-0.27486 -0.12144,-0.0367 -0.25262,0.01 -0.32382,0.11486 -6.31,9.54 -16.49,12.58 -27.67,11.38 -10.22,-1.1 -18.72,-7.77 -22.07,-17.39 q -1.58,-4.53 -1.43,-14.92 0.18,-13.05 0.01,-44.61 c -0.003,-0.13433 0.0488,-0.26409 0.14286,-0.36004 0.0941,-0.0959 0.22278,-0.14999 0.35714,-0.14996 h 19.12 c 0.33689,0 0.61,0.27311 0.61,0.61 q -0.07,17.3 -0.01,39.27 c 0.02,9.59 2.25,19.36 13.62,20.29 8.14,0.66 14.76,-4.06 16.9,-12.3 q 0.37,-1.41 0.37,-9.47 -0.02,-33.62 0.01,-37.81 c 0,-0.15648 0.0622,-0.30655 0.17281,-0.41719 0.11064,-0.11065 0.26071,-0.17281 0.41719,-0.17281 h 19.16 c 0.122,0 0.239,0.0485 0.32527,0.13473 0.0863,0.0863 0.13473,0.20327 0.13473,0.32527 v 75.58 c 0,0.22644 -0.18804,0.41 -0.42,0.41 h -18.63 c -0.32585,0 -0.59,-0.26415 -0.59,-0.59 z"
   stroke-linecap="round"
   id="path34" />
</g><g
     transform="matrix(1.6908494,0,0,1.6908494,1367.0438,448.97327)"
     id="g36">
<path
   style="opacity:1;fill:#f1c22f;fill-rule:nonzero;stroke:none;stroke-width:1;stroke-linecap:butt;stroke-linejoin:miter;stroke-miterlimit:4;stroke-dasharray:none;stroke-dashoffset:0"
   transform="translate(-624.53,-702.45)"
   d="m 621.05,672.74 c -0.002,0.16114 0.10145,0.30472 0.25455,0.35499 0.15311,0.0503 0.32114,-0.004 0.41545,-0.13499 q 3.62,-4.85 9.17,-6.83 7.88,-2.8 16.64,-1.23 c 0.348,0.063 0.60081,0.36635 0.6,0.72 v 17.92 c 0.002,0.12828 -0.0622,0.24856 -0.17016,0.31784 -0.10799,0.0693 -0.24416,0.0777 -0.35984,0.0222 q -5.93,-2.83 -13,-1.99 c -14.21,1.67 -13.47,15.13 -13.36,26.88 q 0.17,19.46 0.13,31.92 c 0,0.19882 -0.16118,0.36 -0.36,0.36 h -19.45 c -0.34794,0 -0.63,-0.28206 -0.63,-0.63 v -75.44 c 0,-0.11139 0.0443,-0.21822 0.12302,-0.29698 0.0788,-0.0788 0.18559,-0.12302 0.29698,-0.12302 h 19.11 c 0.32585,0 0.59,0.26863 0.59,0.6 z"
   stroke-linecap="round"
   id="path35" />
</g></g></svg>
