<?xml version="1.0" standalone="no"?>
<!DOCTYPE svg PUBLIC "-//W3C//DTD SVG 1.1//EN" "http://www.w3.org/Graphics/SVG/1.1/DTD/svg11.dtd">
<svg xmlns:inkscape="http://www.inkscape.org/namespaces/inkscape" xmlns:sodipodi="http://sodipodi.sourceforge.net/DTD/sodipodi-0.dtd" xmlns="http://www.w3.org/2000/svg" xmlns:svg="http://www.w3.org/2000/svg" version="1.1" viewBox="0 200 1080 615" preserveAspectRatio="xMidYMid meet" xml:space="preserve" id="svg36" sodipodi:docname="TQLogo.svg" inkscape:version="1.4.2 (ebf0e940, 2025-05-08)" inkscape:export-filename="TQLogo.png" inkscape:export-xdpi="96" inkscape:export-ydpi="96" style="color:#cf3339" shape-rendering="geometricPrecision" width="1080" height="615"><sodipodi:namedview id="namedview36" pagecolor="#ffffff" bordercolor="#000000" borderopacity="0.25" inkscape:showpageshadow="2" inkscape:pageopacity="0.0" inkscape:pagecheckerboard="0" inkscape:deskcolor="#d1d1d1" showgrid="false" inkscape:zoom="1.3659712" inkscape:cx="504.03698" inkscape:cy="398.98352" inkscape:window-width="1440" inkscape:window-height="771" inkscape:window-x="0" inkscape:window-y="25" inkscape:window-maximized="1" inkscape:current-layer="layer1" inkscape:export-bgcolor="#ffffff00"/>
<desc id="desc1">Created with Fabric.js 5.2.4</desc>
<defs id="defs1">
</defs>
<g transform="matrix(1 0 0 1 540 540)" id="d71c0157-3078-43e4-8a8b-6ed37be1d707">
</g>


<g transform="matrix(1 0 0 1 398.18 718.1)" id="g2" style="stroke:currentColor;stroke-opacity:1">
<path style="stroke:#f1c22f;stroke-width:2;stroke-dasharray:none;stroke-linecap:butt;stroke-dashoffset:0;stroke-linejoin:miter;stroke-miterlimit:4;fill:none;fill-rule:nonzero;opacity:1;stroke-opacity:1" transform=" translate(-370.19, -690.11)" d="M 410.6 724.32 Q 424.77 705.53 422.41 681.53 C 419.94 656.34 401.09 635.24 375.65 632.89 Q 348.83 630.42 331.15 649.25 C 317.39 663.92 314.21 684.71 318.69 703.6 C 324.01 726.02 341.73 740.95 364.98 742.39 C 374.93 743 386.54 741.3 395.12 736.36 C 395.45063379279424 736.1694541460494 395.8677301367093 736.2226134839993 396.14 736.49 L 407.73 748.08 C 408.2235692281832 748.5701588086782 409.01242394843933 748.5877868471197 409.52 748.12 L 421.62 737.02 C 421.74240501913636 736.9090879729728 421.81285597432947 736.7518313911525 421.81474844829086 736.5852936825471 C 421.8166409222523 736.4187559739418 421.7498075032096 736.2576693745248 421.63 736.14 L 410.66 725.16 C 410.4303077030653 724.9320873375497 410.4045555715156 724.5715574958537 410.6 724.32" stroke-linecap="round" id="path2"/>
</g>
<g transform="matrix(1 0 0 1 143.86 715.71)" id="g3" style="stroke:currentColor;stroke-opacity:1">
<path style="stroke:#cf3339;stroke-width:2;stroke-dasharray:none;stroke-linecap:butt;stroke-dashoffset:0;stroke-linejoin:miter;stroke-miterlimit:4;fill:none;fill-rule:nonzero;opacity:1;stroke-opacity:1" transform=" translate(-115.86, -687.71)" d="M 126.78 653.79 C 126.78 653.6600439199785 126.83162485177905 653.5354105026581 126.92351767721858 653.4435176772186 C 127.01541050265813 653.351624851779 127.14004391997862 653.3 127.27 653.3 L 157.4 653.3 C 157.6706195274171 653.3 157.89 653.0806195274171 157.89 652.81 L 157.89 634.86 C 157.89 634.5893804725829 157.6706195274171 634.37 157.4 634.37 L 74.32 634.37 C 74.19004391997862 634.37 74.06541050265812 634.421624851779 73.97351767721858 634.5135176772186 C 73.88162485177905 634.6054105026582 73.83 634.7300439199786 73.83 634.86 L 73.83 652.79 C 73.83 652.9199560800214 73.88162485177905 653.0445894973418 73.97351767721858 653.1364823227814 C 74.06541050265812 653.228375148221 74.19004391997862 653.28 74.32 653.28 L 105.27 653.28 C 105.39995608002138 653.28 105.52458949734188 653.331624851779 105.61648232278141 653.4235176772186 C 105.70837514822095 653.5154105026581 105.76 653.6400439199786 105.76 653.77 L 105.76 740.57 C 105.76000000000006 740.8406195274171 105.97938047258296 741.06 106.25 741.06 L 126.29 741.06 C 126.56061952741705 741.06 126.77999999999994 740.8406195274171 126.78 740.57 L 126.78 653.79" stroke-linecap="round" id="path3"/>
</g>
<g transform="matrix(1 0 0 1 869.61 720.17)" id="g4" style="stroke:currentColor;stroke-opacity:1">
<path style="stroke:#f1c22f;stroke-width:2;stroke-dasharray:none;stroke-linecap:butt;stroke-dashoffset:0;stroke-linejoin:miter;stroke-miterlimit:4;fill:none;fill-rule:nonzero;opacity:1;stroke-opacity:1" transform=" translate(-841.61, -692.17)" d="M 866.98 724.43 C 866.9806858588001 724.2776701980629 866.9118918969618 724.1333364870002 866.7931312781708 724.0379386128893 C 866.6743706593797 723.9425407387786 866.5185988602359 723.906485559872 866.37 723.94 C 861.53 725.05 854.76 725.22 851.45 721.08 C 849.24 718.31 849.16 714.24 849.13 710.5 Q 849.09 702.11 849.13 682.62 C 849.13 682.4688266007914 849.1911069674119 682.323844870439 849.2998780669118 682.2169491347237 C 849.4086491664117 682.1100533990083 849.5561744358931 682.05 849.71 682.05 L 866.54 682.05 C 866.7940509849221 682.05 867 681.8440509849222 867 681.59 L 867 665.08 C 867 664.9288266007915 866.9399466009917 664.783844870439 866.8330508652763 664.6769491347237 C 866.726155129561 664.5700533990083 866.5811733992085 664.51 866.43 664.51 L 849.78 664.51 C 849.6182179411978 664.51 849.4630620543295 664.4457323273771 849.3486648634762 664.3313351365238 C 849.2342676726229 664.2169379456705 849.17 664.0617820588021 849.17 663.9 L 849.17 642.4 C 849.17 642.1404261675796 848.9595738324205 641.93 848.7 641.93 L 829.45 641.93 C 829.3014787656899 641.93 829.1590405744664 641.9889998306046 829.0540202025355 642.0940202025355 C 828.9489998306046 642.1990405744664 828.89 642.3414787656899 828.89 642.49 L 828.89 663.88 C 828.89 664.2279393923934 828.6034622398917 664.51 828.25 664.51 L 816.55 664.51 C 816.3622231850575 664.51 816.21 664.6667003375593 816.21 664.86 L 816.21 681.46 C 816.21 681.7913708498984 816.4786291501016 682.06 816.81 682.06 L 827.94 682.06 C 828.4497447833893 682.0599705307341 828.8645188741397 682.4702846850248 828.87 682.98 Q 828.92 697.15 828.74 711.03 Q 828.59 722.76 829.37 725.51 Q 832.55 736.75 843.27 739.8 Q 854.39 742.96 866.43 741.32 C 866.7430877875647 741.2799024194339 866.9781883256904 741.0106054393991 866.98 740.69 L 866.98 724.43" stroke-linecap="round" id="path4"/>
</g>
<g transform="matrix(1 0 0 1 210.21 730.75)" id="g5" style="stroke:currentColor;stroke-opacity:1">
<path style="stroke:#cf3339;stroke-width:2;stroke-dasharray:none;stroke-linecap:butt;stroke-dashoffset:0;stroke-linejoin:miter;stroke-miterlimit:4;fill:none;fill-rule:nonzero;opacity:1;stroke-opacity:1" transform=" translate(-182.21, -702.75)" d="M 222.8399 702.6791 C 222.801357368009 680.6043220745967 204.5794851668182 662.7409353922548 182.14019999999996 662.7801 C 159.70095561905117 662.8193059794477 141.54160128756678 680.7461620502193 141.58010000000002 702.8209 C 141.61864263199098 724.8956779254033 159.84051483318177 742.7590646077452 182.2798 742.7199 C 204.71904438094882 742.6806940205523 222.87839871243318 724.7538379497807 222.8399 702.6791" stroke-linecap="round" id="path5"/>
</g>
<g transform="matrix(1 0 0 1 298.76 745.42)" id="g6" style="stroke:currentColor;stroke-opacity:1">
<path style="stroke:#cf3339;stroke-width:2;stroke-dasharray:none;stroke-linecap:butt;stroke-dashoffset:0;stroke-linejoin:miter;stroke-miterlimit:4;fill:none;fill-rule:nonzero;opacity:1;stroke-opacity:1" transform=" translate(-270.76, -717.42)" d="M 251.07 673.45 L 251.07 665.2 C 251.07 664.8631063026032 250.7968936973968 664.59 250.46 664.59 L 231.7 664.59 C 231.4901317950643 664.59 231.32 664.7601317950644 231.32 664.97 L 231.32 771.36 C 231.32 771.647188069912 231.55728908258968 771.88 231.85 771.88 L 250.65 771.88 C 250.7746517502246 771.88 250.8941980892871 771.8304822850282 250.9823401871577 771.7423401871577 C 251.07048228502828 771.6541980892871 251.12 771.5346517502246 251.12 771.41 L 251.12 731.52 C 251.12130515806942 731.409179570203 251.19440506006748 731.3102273129437 251.29900822718744 731.2776841053952 C 251.40361139430738 731.2451408978468 251.5142737495864 731.2869226750644 251.57 731.38 C 255.72 737.65 264.57 741.2 271.74 741.76 Q 289.87 743.19 301.49 729.18 C 310.11 718.8 311.6 705.3 309.11 692.18 Q 307.69 684.73 302.23 677.1 C 290.35 660.49 265.18 657.46 251.64 673.66 C 251.55400606816872 673.7678164350424 251.40861061897218 673.808410789304 251.2792031350054 673.7607343478426 C 251.14979565103857 673.7130579063812 251.06549008539048 673.5878368624399 251.07 673.45" stroke-linecap="round" id="path6"/>
</g>
<g transform="matrix(1 0 0 1 579.77 730.38)" id="g7" style="stroke:currentColor;stroke-opacity:1">
<path style="stroke:#f1c22f;stroke-width:2;stroke-dasharray:none;stroke-linecap:butt;stroke-dashoffset:0;stroke-linejoin:miter;stroke-miterlimit:4;fill:none;fill-rule:nonzero;opacity:1;stroke-opacity:1" transform=" translate(-551.78, -702.38)" d="M 566.98 731.24 L 566.96 740.11 C 566.9599907889435 740.3327879279393 567.0474328991291 740.5464505322627 567.2030890907242 740.7039820996603 C 567.3587452823193 740.8615136670578 567.5698642932347 740.9500093057762 567.79 740.95 L 586.47 740.97 C 586.6556674388378 740.9701807804472 586.8333346955734 740.8944347851719 586.9617580282664 740.760345717213 C 587.0901813609596 740.626256649254 587.1581913024309 740.4454867464015 587.15 740.26 Q 586.12 720.63 585.81 696.07 C 585.72 688.24 584.97 680.81 580.5 674.41 C 576.41 668.53 567.78 664.78 560.77 663.7 Q 549.27 661.95 538.34 665.21 Q 521.31 670.29 519.67 687.7 C 519.6450356931946 687.9537872452057 519.723152144587 688.2069551813527 519.8867766176216 688.4025522525666 C 520.0504010906564 688.5981493237804 520.2857931415045 688.7197501719211 520.54 688.74 L 536.47 689.99 C 536.8926455305194 690.0253441740823 537.2766717984772 689.7437249109132 537.37 689.33 C 539.43 679.91 548.85 678.83 556.76 680.22 C 564.6 681.61 565.97 686.65 565.81 693.94 C 565.8006216335611 694.4178406911603 565.4269212396224 694.8089224987707 564.95 694.84 Q 557.6 695.39 543.75 696.37 C 532.15 697.2 518.8 701.14 516.74 714.68 C 514.08 732.18 527.6 742.26 543.8 742.23 Q 556.12 742.21 563.22 735.4 C 564.63 734.04 565.44 732.36 566.49 731.07 C 566.5664459860269 730.9800409075144 566.6913107602936 730.9454364061206 566.8015110028184 730.9836691433231 C 566.9117112453432 731.0219018805255 566.9832560323348 731.1246484746008 566.98 731.24" stroke-linecap="round" id="path7"/>
</g>
<g transform="matrix(1 0 0 1 716.07 730.37)" id="g8" style="stroke:currentColor;stroke-opacity:1">
<path style="stroke:#f1c22f;stroke-width:2;stroke-dasharray:none;stroke-linecap:butt;stroke-dashoffset:0;stroke-linejoin:miter;stroke-miterlimit:4;fill:none;fill-rule:nonzero;opacity:1;stroke-opacity:1" transform=" translate(-688.06, -702.37)" d="M 703.32 731.33 L 703.31 740.22 C 703.3099907889435 740.4427879279393 703.3974328991291 740.6564505322627 703.5530890907243 740.8139820996603 C 703.7087452823193 740.9715136670577 703.9198642932347 741.0600093057761 704.14 741.06 L 722.89 741.08 C 723.0774964841821 741.080324686533 723.2568068024578 741.0032176364343 723.3855464938748 740.8669050219928 C 723.5142861852917 740.7305924075514 723.5810295026175 740.5471720787779 723.57 740.36 Q 722.52 720.66 722.2 696.01 C 722.1 688.15 721.35 680.7 716.86 674.27 C 712.75 668.38 704.08 664.61 697.04 663.54 Q 685.5 661.79 674.53 665.07 Q 657.45 670.18 655.81 687.65 C 655.7850787244088 687.9053972552599 655.8645369220636 688.1600137318101 656.0302923316549 688.3559064885998 C 656.1960477412462 688.5517992453895 656.4340005647148 688.6723048847125 656.69 688.69 L 672.67 689.94 C 673.0926455305195 689.9753441740824 673.4766717984774 689.6937249109133 673.57 689.28 C 675.64 679.82 685.1 678.73 693.03 680.12 C 700.9 681.51 702.28 686.57 702.12 693.88 C 702.1157882065664 694.3617069531745 701.7407010138355 694.7586015408317 701.26 694.79 Q 693.88 695.34 679.99 696.34 C 668.34 697.18 654.95 701.14 652.89 714.73 C 650.23 732.3 663.8 742.41 680.07 742.37 Q 692.43 742.34 699.55 735.5 C 700.97 734.13 701.78 732.44 702.83 731.16 C 702.9064459860269 731.0700409075143 703.0313107602936 731.0354364061205 703.1415110028186 731.0736691433231 C 703.2517112453434 731.1119018805256 703.3232560323349 731.2146484746008 703.32 731.33" stroke-linecap="round" id="path8"/>
</g>
<g transform="matrix(1 0 0 1 801.08 729.99)" id="g9" style="stroke:currentColor;stroke-opacity:1">
<path style="stroke:#f1c22f;stroke-width:2;stroke-dasharray:none;stroke-linecap:butt;stroke-dashoffset:0;stroke-linejoin:miter;stroke-miterlimit:4;fill:none;fill-rule:nonzero;opacity:1;stroke-opacity:1" transform=" translate(-773.08, -701.99)" d="M 756.33 674.61 L 756.33 664.98 C 756.33 664.865956909369 756.2857501270465 664.7565847268224 756.2069848480984 664.6759440840897 C 756.1282195691502 664.595303441357 756.0213909257326 664.55 755.91 664.55 L 737.62 664.55 C 737.4820874252835 664.55 737.3498233905759 664.6058391253937 737.2523044737829 664.7052334059712 C 737.15478555699 664.8046276865485 737.1 664.939435260385 737.1 665.08 L 737.1 740.32 C 737.1 740.7231678673764 737.4223549801219 741.05 737.82 741.05 L 757.21 741.05 C 757.5855536298849 741.05 757.89 740.7455536298849 757.89 740.37 Q 757.82 714.45 757.89 701.85 Q 757.95 692.21 759.64 688.49 Q 762.84 681.43 770.91 680.26 Q 777.68 679.27 782.2 681.81 C 787.79 684.96 788.57 691.26 788.62 697.27 Q 788.83 720.8 788.64 740.62 C 788.64 740.734043090631 788.6853034413572 740.8434152731776 788.7659440840898 740.9240559159102 C 788.8465847268225 741.0046965586429 788.9559569093691 741.05 789.07 741.05 L 808.47 741.05 C 808.6909138999323 741.05 808.87 740.8709138999322 808.87 740.65 Q 809.1 706.51 808.96 696.01 Q 808.83 686.56 807.5 682.45 Q 804.16 672.13 795.33 667.05 C 782.25 659.51 765.91 662.45 756.67 674.73 C 756.6198008492081 674.7946033270455 756.5338832765834 674.8198181169736 756.4567333846944 674.7925887433656 C 756.3795834928055 674.7653593697578 756.3285270967172 674.6918008261663 756.33 674.61" stroke-linecap="round" id="path9"/>
</g>
<g transform="matrix(1 0 0 1 939.45 730.41)" id="g10" style="stroke:currentColor;stroke-opacity:1">
<path style="stroke:#f1c22f;stroke-width:2;stroke-dasharray:none;stroke-linecap:butt;stroke-dashoffset:0;stroke-linejoin:miter;stroke-miterlimit:4;fill:none;fill-rule:nonzero;opacity:1;stroke-opacity:1" transform=" translate(-911.44, -702.42)" d="M 926.72 731.39 L 926.72 740.3 C 926.72 740.7639191898578 927.0916036576405 741.14 927.55 741.14 L 946.33 741.14 C 946.5174964841822 741.140324686533 946.6968068024579 741.0632176364343 946.8255464938748 740.9269050219928 C 946.9542861852917 740.7905924075513 947.0210295026175 740.6071720787777 947.01 740.42 Q 945.94 720.69 945.6 696.01 C 945.49 688.14 944.73 680.68 940.23 674.25 C 936.11 668.35 927.43 664.59 920.38 663.52 Q 908.82 661.78 897.84 665.07 Q 880.74 670.2 879.11 687.7 C 879.0850787244088 687.95539725526 879.1645369220637 688.21001373181 879.330292331655 688.4059064885997 C 879.4960477412461 688.6017992453893 879.7340005647147 688.7223048847125 879.99 688.74 L 896 689.98 C 896.4224569941292 690.0142271800433 896.8063637032931 689.7284299632213 896.9 689.31 C 898.96 679.84 908.43 678.74 916.38 680.13 C 924.26 681.51 925.64 686.58 925.49 693.9 C 925.4858241701149 694.3781912726748 925.1120256847511 694.773722228118 924.63 694.81 Q 917.24 695.37 903.33 696.38 C 891.67 697.23 878.26 701.21 876.21 714.82 C 873.56 732.41 887.16 742.52 903.45 742.47 Q 915.83 742.43 922.95 735.57 C 924.37 734.2 925.18 732.51 926.23 731.22 C 926.3064415690724 731.1300064125744 926.4313211643548 731.0953781643325 926.5415316057772 731.133614439928 C 926.6517420471996 731.1718507155235 926.7232823353372 731.274624637605 926.72 731.39" stroke-linecap="round" id="path10"/>
</g>
<g transform="matrix(1 0 0 1 497.49 731.45)" id="g11" style="stroke:currentColor;stroke-opacity:1">
<path style="stroke:#f1c22f;stroke-width:2;stroke-dasharray:none;stroke-linecap:butt;stroke-dashoffset:0;stroke-linejoin:miter;stroke-miterlimit:4;fill:none;fill-rule:nonzero;opacity:1;stroke-opacity:1" transform=" translate(-469.49, -703.45)" d="M 485.55 730.82 L 485.55 740.47 C 485.55000000000007 740.7958480024001 485.8141519975999 741.06 486.14 741.06 L 504.77 741.06 C 505.0019595949289 741.06 505.19 740.8764367474306 505.19 740.65 L 505.19 665.07 C 505.19 664.9480004146739 505.14153585343195 664.8309976147403 505.05526911934584 664.7447308806542 C 504.9690023852597 664.6584641465681 504.8519995853262 664.61 504.73 664.61 L 485.57 664.61 C 485.41352227099463 664.61 485.2634534623843 664.6721605358156 485.15280699909994 664.7828069991 C 485.0421605358156 664.8934534623843 484.98 665.0435222709947 484.98 665.2 Q 484.95 669.39 484.97 703.01 Q 484.97 711.07 484.6 712.48 C 482.46 720.72 475.84 725.44 467.7 724.78 C 456.33 723.85 454.1 714.08 454.08 704.49 Q 454.02 682.52 454.09 665.22 C 454.09 664.8831063026032 453.8168936973968 664.61 453.48 664.61 L 434.36 664.61 C 434.22564081922326 664.6099731254218 434.09692459336446 664.6640220409333 434.00286357022566 664.7599642845349 C 433.9088025470868 664.8559065281365 433.857312813643 664.9856676911137 433.86 665.12 Q 434.03 696.68 433.85 709.73 Q 433.7 720.12 435.28 724.65 C 438.63 734.27 447.13 740.94 457.35 742.04 C 468.53 743.24 478.71 740.2 485.02 730.66 C 485.09120163664755 730.555008487578 485.2223801018829 730.5084812073482 485.3438245488584 730.5451436819068 C 485.46526899583387 730.5818061564654 485.5487888504752 730.6931480238279 485.55 730.82" stroke-linecap="round" id="path11"/>
</g>
<g transform="matrix(1 0 0 1 652.53 730.44)" id="g12" style="stroke:currentColor;stroke-opacity:1">
<path style="stroke:#f1c22f;stroke-width:2;stroke-dasharray:none;stroke-linecap:butt;stroke-dashoffset:0;stroke-linejoin:miter;stroke-miterlimit:4;fill:none;fill-rule:nonzero;opacity:1;stroke-opacity:1" transform=" translate(-624.53, -702.45)" d="M 621.05 672.74 L 621.05 665.16 C 621.05 664.8286291501015 620.7858480024001 664.56 620.46 664.56 L 601.35 664.56 C 601.2386090742674 664.56 601.1317804308497 664.6042498729533 601.0530151519016 664.6830151519016 C 600.9742498729534 664.7617804308497 600.93 664.8686090742674 600.93 664.98 L 600.93 740.42 C 600.93 740.7679393923934 601.2120606076065 741.05 601.56 741.05 L 621.01 741.05 C 621.2088225099391 741.05 621.37 740.8888225099391 621.37 740.69 Q 621.41 728.23 621.24 708.77 C 621.13 697.02 620.39 683.56 634.6 681.89 Q 641.67 681.05 647.6 683.88 C 647.7156761095627 683.9355010824971 647.8518479649265 683.9271140200126 647.9598387670915 683.8578369016426 C 648.0678295692566 683.7885597832726 648.1322227723109 683.6682824686586 648.13 683.54 L 648.13 665.62 C 648.1308081982116 665.2663471774185 647.8780009759871 664.962978510749 647.53 664.9 Q 638.77 663.33 630.89 666.13 Q 625.34 668.11 621.72 672.96 C 621.6256902509494 673.0906651359223 621.4576573042086 673.1452647543076 621.304554773253 673.0949922814566 C 621.1514522422975 673.0447198086055 621.0484938114314 672.9011379468268 621.05 672.74" stroke-linecap="round" id="path12"/>
</g>




<g transform="matrix(1 0 0 1 397.52 715.54)" id="g17" style="stroke:currentColor;stroke-opacity:1">
<path style="stroke:#f1c22f;stroke-width:2;stroke-dasharray:none;stroke-linecap:butt;stroke-dashoffset:0;stroke-linejoin:miter;stroke-miterlimit:4;fill:none;fill-rule:nonzero;opacity:1;stroke-opacity:1" transform=" translate(-369.52, -687.54)" d="M 378.7 721.34 L 368.52 711.17 C 368.25622231003155 710.9047857271755 368.112357285553 710.54324910896 368.1218001131992 710.1693131341717 C 368.13124294084537 709.7953771593833 368.29317238839974 709.441562623795 368.57 709.19 L 380.48 698.25 C 380.8889776452705 697.8786067306387 381.51695827333 697.8917811494092 381.91 698.28 L 393.65 710.02 C 393.82115730715725 710.1931721108099 394.0611346221644 710.280165081724 394.3035021883555 710.2568977953697 C 394.5458697545466 710.2336305090153 394.76491407573894 710.1025714610261 394.9 709.9 Q 400.13 702.2 400.87 692.61 C 401.16 688.91 401.28 682.55 400.41 678.56 C 395.55 656.12 370.48 643.33 351.16 658.93 C 331.62 674.7 333.47 712.15 358.7 721.32 C 364.84 723.54 372.46 723.48 378.56 721.86 C 378.66770652017584 721.8318681584341 378.7520599858748 721.7481460346178 378.7810001775887 721.6406538939661 C 378.8099403693025 721.5331617533146 378.77902344526933 721.4184052938012 378.7 721.34" stroke-linecap="round" id="path17"/>
</g>
<g transform="matrix(1 0 0 1 210.32 730.62)" id="g18" style="stroke:currentColor;stroke-opacity:1">
<path style="stroke:#cf3339;stroke-width:2;stroke-dasharray:none;stroke-linecap:butt;stroke-dashoffset:0;stroke-linejoin:miter;stroke-miterlimit:4;fill:none;fill-rule:nonzero;opacity:1;stroke-opacity:1" transform=" translate(-182.32, -702.62)" d="M 183.4659 681.461 C 172.62939443660494 680.8741627000534 163.33165218060333 689.8716225029874 162.6988 701.5574 C 162.0659419186693 713.2431667578559 170.33760717139498 723.1921059675017 181.1741 723.779 C 192.01060556339507 724.3658372999466 201.3083478193967 715.3683774970126 201.9412 703.6826 C 202.57405808133072 691.9968332421441 194.30239282860504 682.0478940324983 183.4659 681.461" stroke-linecap="round" id="path18"/>
</g>
<g transform="matrix(1 0 0 1 298.14 730.57)" id="g19" style="stroke:currentColor;stroke-opacity:1">
<path style="stroke:#cf3339;stroke-width:2;stroke-dasharray:none;stroke-linecap:butt;stroke-dashoffset:0;stroke-linejoin:miter;stroke-miterlimit:4;fill:none;fill-rule:nonzero;opacity:1;stroke-opacity:1" transform=" translate(-270.14, -702.57)" d="M 270.5911 681.0347 C 265.48678857520633 680.9277737615795 260.5440087410947 683.0941278075163 256.850121100671 687.0571865830069 C 253.15623346024734 691.0202453584976 251.01382374361538 696.4553739125752 250.8942 702.1669 C 250.77456514784276 707.8784113755071 252.68750535319853 713.3984658777412 256.21219546981354 717.5127141314695 C 259.73688558642857 721.6269623851978 264.58460124881105 723.9983864747363 269.6889 724.1053 C 274.79321142479364 724.2122262384206 279.73599125890536 722.0458721924838 283.429878899329 718.0828134169932 C 287.1237665397527 714.1197546415026 289.26617625638465 708.6846260874249 289.3858 702.9731 C 289.5054348521573 697.261588624493 287.5924946468015 691.7415341222589 284.06780453018644 687.6272858685306 C 280.5431144135714 683.5130376148023 275.695398751189 681.1416135252638 270.5911 681.0347" stroke-linecap="round" id="path19"/>
</g>
<g transform="matrix(1 0 0 1 579.5 744.73)" id="g20" style="stroke:currentColor;stroke-opacity:1;fill:none">
<path style="stroke:#f1c22f;stroke-width:2;stroke-dasharray:none;stroke-linecap:butt;stroke-dashoffset:0;stroke-linejoin:miter;stroke-miterlimit:4;fill:none;fill-rule:nonzero;opacity:1;stroke-opacity:1" transform=" translate(-551.5, -716.73)" d="M 566.04 707.47 C 565.9878575532678 707.2667839234543 565.799491675492 707.1286489464188 565.59 707.14 Q 556.01 707.84 549.75 708.5 C 544.18 709.09 537.23 710.85 536.81 717.45 C 536.24 726.59 548.53 727.24 554.48 725.63 Q 564.64 722.87 565.92 711.9 C 566.1 710.41 566.41 708.79 566.04 707.47" stroke-linecap="round" id="path20"/>
</g>
<g transform="matrix(1 0 0 1 715.74 744.69)" id="g21" style="stroke:currentColor;stroke-opacity:1;fill:none">
<path style="stroke:#f1c22f;stroke-width:2;stroke-dasharray:none;stroke-linecap:butt;stroke-dashoffset:0;stroke-linejoin:miter;stroke-miterlimit:4;fill:none;fill-rule:nonzero;opacity:1;stroke-opacity:1" transform=" translate(-687.73, -716.69)" d="M 702.37 707.41 C 702.3219066862068 707.2027904895151 702.1324659515152 707.0596574899703 701.92 707.07 Q 692.28 707.75 685.98 708.4 C 680.38 708.97 673.39 710.72 672.95 717.36 C 672.35 726.55 684.7 727.24 690.69 725.64 Q 700.92 722.89 702.24 711.86 C 702.42 710.36 702.74 708.74 702.37 707.41" stroke-linecap="round" id="path21"/>
</g>
<g transform="matrix(1 0 0 1 939.02 744.72)" id="g22" style="stroke:currentColor;stroke-opacity:1">
<path style="stroke:#f1c22f;stroke-width:2;stroke-dasharray:none;stroke-linecap:butt;stroke-dashoffset:0;stroke-linejoin:miter;stroke-miterlimit:4;fill:none;fill-rule:nonzero;opacity:1;stroke-opacity:1" transform=" translate(-911.03, -716.72)" d="M 925.74 707.45 C 925.6878575532678 707.2467839234544 925.499491675492 707.1086489464187 925.29 707.12 Q 915.62 707.74 909.3 708.35 C 903.68 708.9 896.66 710.61 896.18 717.27 C 895.52 726.48 907.91 727.24 913.93 725.67 Q 924.2 722.97 925.58 711.92 C 925.77 710.42 926.1 708.79 925.74 707.45" stroke-linecap="round" id="path22"/>
</g>














<g inkscape:groupmode="layer" id="layer1" inkscape:label="Final" style="display:inline"><g transform="translate(540.22,403.01)" id="g23" inkscape:export-filename="g23.png" inkscape:export-xdpi="96" inkscape:export-ydpi="96">
<path style="opacity:1;fill:#0047ba;fill-rule:nonzero;stroke:none;stroke-width:1;stroke-linecap:butt;stroke-linejoin:miter;stroke-miterlimit:4;stroke-dasharray:none;stroke-dashoffset:0" transform="translate(-512.22,-375.01)" d="M 698.1598,338.867 C 718.09995,441.45027 651.01659,540.79223 548.3249,560.7535 499.01059,570.33923 447.91216,559.963 406.2707,531.90746 364.62924,503.85193 335.8558,460.41525 326.2802,411.153 306.34005,308.56973 373.42341,209.22777 476.1151,189.2665 c 49.31431,-9.58573 100.41274,0.7905 142.0542,28.84604 41.64146,28.05553 70.4149,71.49221 79.9905,120.75446 z m -23.079,30.45 C 673.57524,326.20315 654.98547,285.45388 623.40104,256.03357 591.81662,226.61325 549.82476,210.93185 506.6632,212.4391 c -89.87922,3.13868 -160.19916,78.46402 -157.064,168.2439 1.50556,43.11385 20.09533,83.86312 51.67976,113.28343 31.58442,29.42032 73.57628,45.10172 116.73784,43.59447 89.87922,-3.13868 160.19916,-78.46402 157.064,-168.2439 z" stroke-linecap="round" id="path23"/>
</g><g transform="translate(540.34,403)" id="g13" style="stroke:currentColor;stroke-opacity:1">
<path style="opacity:1;fill:none;fill-rule:nonzero;stroke:#0047ba;stroke-width:2;stroke-linecap:butt;stroke-linejoin:miter;stroke-miterlimit:4;stroke-dasharray:none;stroke-dashoffset:0;stroke-opacity:1" transform="translate(-512.34,-375)" d="M 675.0808,369.317 C 673.57524,326.20315 654.98547,285.45388 623.40104,256.03357 591.81662,226.61325 549.82476,210.93185 506.6632,212.4391 c -89.87922,3.13868 -160.19916,78.46402 -157.064,168.2439 1.50556,43.11385 20.09533,83.86312 51.67976,113.28343 31.58442,29.42032 73.57628,45.10172 116.73784,43.59447 89.87922,-3.13868 160.19916,-78.46402 157.064,-168.2439" stroke-linecap="round" id="path13"/>
</g><g transform="translate(540.22,403.01)" id="g1" style="stroke:currentColor;stroke-opacity:1">
<path style="opacity:1;fill:none;fill-rule:nonzero;stroke:#0047ba;stroke-width:2;stroke-linecap:butt;stroke-linejoin:miter;stroke-miterlimit:4;stroke-dasharray:none;stroke-dashoffset:0;stroke-opacity:1" transform="translate(-512.22,-375.01)" d="M 698.1598,338.867 C 688.5842,289.60475 659.81076,246.16807 618.1693,218.11254 576.52784,190.057 525.42941,179.68077 476.1151,189.2665 373.42341,209.22777 306.34005,308.56973 326.2802,411.153 c 9.5756,49.26225 38.34904,92.69893 79.9905,120.75446 41.64146,28.05554 92.73989,38.43177 142.0542,28.84604 C 651.01659,540.79223 718.09995,441.45027 698.1598,338.867" stroke-linecap="round" id="path1"/>
</g><g transform="translate(615,488.23)" id="g25">
<circle style="opacity:1;fill:#0047ba;fill-rule:nonzero;stroke:none;stroke-width:1;stroke-linecap:butt;stroke-linejoin:miter;stroke-miterlimit:4;stroke-dasharray:none;stroke-dashoffset:0" cx="0" cy="0" r="20.950001" id="circle24"/>
</g><g transform="translate(615,488.23)" id="g15" style="stroke:currentColor;stroke-opacity:1">
<path style="opacity:1;fill:none;fill-rule:nonzero;stroke:#0047ba;stroke-width:2;stroke-linecap:butt;stroke-linejoin:miter;stroke-miterlimit:4;stroke-dasharray:none;stroke-dashoffset:0;stroke-opacity:1" transform="translate(-587,-460.23)" d="m 607.95,460.23 c 0,-5.55629 -2.20723,-10.885 -6.13611,-14.81389 C 597.885,441.48723 592.55629,439.28 587,439.28 c -5.55629,0 -10.885,2.20723 -14.81389,6.13611 -3.92888,3.92889 -6.13611,9.2576 -6.13611,14.81389 0,5.55629 2.20723,10.885 6.13611,14.81389 3.92889,3.92888 9.2576,6.13611 14.81389,6.13611 5.55629,0 10.885,-2.20723 14.81389,-6.13611 3.92888,-3.92889 6.13611,-9.2576 6.13611,-14.81389" stroke-linecap="round" id="path15"/>
</g><g transform="translate(550.36,401.28)" id="g24">
<path style="opacity:1;fill:#0047ba;fill-rule:nonzero;stroke:none;stroke-width:1;stroke-linecap:butt;stroke-linejoin:miter;stroke-miterlimit:4;stroke-dasharray:none;stroke-dashoffset:0" transform="translate(-522.36,-373.27)" d="m 600.61,387.84 -140.32,80.42 c -5.03576,2.88601 -11.22761,2.87083 -16.24915,-0.0399 -5.02154,-2.91068 -8.11223,-8.27602 -8.11085,-14.08015 l 0.05,-161.74 c 0.002,-5.81684 3.10938,-11.19007 8.15001,-14.09312 5.04062,-2.90305 11.24763,-2.89424 16.27999,0.0231 l 140.27,81.31 c 5.03632,2.91629 8.13144,8.30052 8.11699,14.12024 -0.0145,5.81971 -3.13626,11.18851 -8.18699,14.07976 z m -137.52,47.53 c -0.001,0.14355 0.0744,0.27678 0.19844,0.34911 0.12399,0.0723 0.27724,0.0727 0.40156,8.9e-4 l 107.19,-61.64 c 0.12239,-0.0718 0.19758,-0.20309 0.19758,-0.345 0,-0.14191 -0.0752,-0.27319 -0.19758,-0.345 L 463.91,311.38 c -0.12333,-0.0761 -0.27817,-0.0795 -0.40474,-0.009 -0.12658,0.0705 -0.2051,0.20404 -0.20526,0.34895 z" stroke-linecap="round" id="path24"/>
</g><g transform="translate(550.36,401.28)" id="g14" style="stroke:currentColor;stroke-opacity:1">
<path style="opacity:1;fill:none;fill-rule:nonzero;stroke:#0047ba;stroke-width:2;stroke-linecap:butt;stroke-linejoin:miter;stroke-miterlimit:4;stroke-dasharray:none;stroke-dashoffset:0;stroke-opacity:1" transform="translate(-522.36,-373.27)" d="m 600.61,387.84 c 5.05073,-2.89125 8.17254,-8.26005 8.18699,-14.07976 0.0144,-5.81972 -3.08067,-11.20395 -8.11699,-14.12024 L 460.41,278.33 c -5.03236,-2.91736 -11.23937,-2.92617 -16.27999,-0.0231 -5.04063,2.90305 -8.14795,8.27628 -8.15001,14.09312 l -0.05,161.74 c -0.001,5.80413 3.08931,11.16947 8.11085,14.08015 5.02154,2.91068 11.21339,2.92586 16.24915,0.0399 l 140.32,-80.42" stroke-linecap="round" id="path14"/>
</g><g transform="translate(545.08,401.55)" id="g16" style="stroke:currentColor;stroke-opacity:1">
<path style="opacity:1;fill:none;fill-rule:nonzero;stroke:#0047ba;stroke-width:2;stroke-linecap:butt;stroke-linejoin:miter;stroke-miterlimit:4;stroke-dasharray:none;stroke-dashoffset:0;stroke-opacity:1" transform="translate(-517.08,-373.55)" d="m 463.09,435.37 c -0.001,0.14355 0.0744,0.27678 0.19844,0.34911 0.12399,0.0723 0.27724,0.0727 0.40156,8.9e-4 l 107.19,-61.64 c 0.12239,-0.0718 0.19758,-0.20309 0.19758,-0.345 0,-0.14191 -0.0752,-0.27319 -0.19758,-0.345 L 463.91,311.38 c -0.12333,-0.0761 -0.27817,-0.0795 -0.40474,-0.009 -0.12658,0.0705 -0.2051,0.20404 -0.20526,0.34895 l -0.21,123.65" stroke-linecap="round" id="path16"/>
</g><g transform="translate(398.18,718.1)" id="g26">
<path style="opacity:1;fill:#f1c22f;fill-rule:nonzero;stroke:none;stroke-width:1;stroke-linecap:butt;stroke-linejoin:miter;stroke-miterlimit:4;stroke-dasharray:none;stroke-dashoffset:0" transform="translate(-370.19,-690.11)" d="m 410.66,725.16 10.97,10.98 c 0.11981,0.11767 0.18664,0.27876 0.18475,0.44529 -0.002,0.16654 -0.0723,0.3238 -0.19475,0.43471 l -12.1,11.1 c -0.50758,0.46779 -1.29643,0.45016 -1.79,-0.04 l -11.59,-11.59 c -0.27227,-0.26739 -0.68937,-0.32055 -1.02,-0.13 -8.58,4.94 -20.19,6.64 -30.14,6.03 -23.25,-1.44 -40.97,-16.37 -46.29,-38.79 -4.48,-18.89 -1.3,-39.68 12.46,-54.35 q 17.68,-18.83 44.5,-16.36 c 25.44,2.35 44.29,23.45 46.76,48.64 q 2.36,24 -11.81,42.79 c -0.19544,0.25156 -0.16969,0.61209 0.06,0.84 z m -31.96,-3.82 -10.18,-10.17 c -0.26378,-0.26521 -0.40764,-0.62675 -0.3982,-1.00069 0.009,-0.37393 0.17137,-0.72775 0.4482,-0.97931 l 11.91,-10.94 c 0.40898,-0.37139 1.03696,-0.35822 1.43,0.03 l 11.74,11.74 c 0.17116,0.17317 0.41113,0.26017 0.6535,0.2369 0.24237,-0.0233 0.46141,-0.15433 0.5965,-0.3569 q 5.23,-7.7 5.97,-17.29 c 0.29,-3.7 0.41,-10.06 -0.46,-14.05 -4.86,-22.44 -29.93,-35.23 -49.25,-19.63 -19.54,15.77 -17.69,53.22 7.54,62.39 6.14,2.22 13.76,2.16 19.86,0.54 0.10771,-0.0281 0.19206,-0.11185 0.221,-0.21935 0.0289,-0.10749 -0.002,-0.22224 -0.081,-0.30065 z" stroke-linecap="round" id="path25"/>
</g><g transform="translate(143.86,715.71)" id="g27">
<path style="opacity:1;fill:#cf3339;fill-rule:nonzero;stroke:none;stroke-width:1;stroke-linecap:butt;stroke-linejoin:miter;stroke-miterlimit:4;stroke-dasharray:none;stroke-dashoffset:0" transform="translate(-115.86,-687.71)" d="m 126.78,653.79 v 86.78 c 0,0.27062 -0.21938,0.49 -0.49,0.49 h -20.04 c -0.27062,0 -0.49,-0.21938 -0.49,-0.49 v -86.8 c 0,-0.12996 -0.0516,-0.25459 -0.14352,-0.34648 -0.0919,-0.0919 -0.21652,-0.14352 -0.34648,-0.14352 H 74.32 c -0.129956,0 -0.254589,-0.0516 -0.346482,-0.14352 C 73.881625,653.04459 73.83,652.91996 73.83,652.79 v -17.93 c 0,-0.12996 0.05163,-0.25459 0.143518,-0.34648 0.09189,-0.0919 0.216526,-0.14352 0.346482,-0.14352 h 83.08 c 0.27062,0 0.49,0.21938 0.49,0.49 v 17.95 c 0,0.27062 -0.21938,0.49 -0.49,0.49 h -30.13 c -0.12996,0 -0.25459,0.0516 -0.34648,0.14352 -0.0919,0.0919 -0.14352,0.21652 -0.14352,0.34648 z" stroke-linecap="round" id="path26"/>
</g><g transform="translate(869.61,720.17)" id="g28">
<path style="opacity:1;fill:#f1c22f;fill-rule:nonzero;stroke:none;stroke-width:1;stroke-linecap:butt;stroke-linejoin:miter;stroke-miterlimit:4;stroke-dasharray:none;stroke-dashoffset:0" transform="translate(-841.61,-692.17)" d="m 866.98,724.43 v 16.26 c -0.002,0.32061 -0.23691,0.5899 -0.55,0.63 q -12.04,1.64 -23.16,-1.52 -10.72,-3.05 -13.9,-14.29 -0.78,-2.75 -0.63,-14.48 0.18,-13.88 0.13,-28.05 c -0.005,-0.50972 -0.42026,-0.92003 -0.93,-0.92 h -11.13 c -0.33137,0 -0.6,-0.26863 -0.6,-0.6 v -16.6 c 0,-0.1933 0.15222,-0.35 0.34,-0.35 h 11.7 c 0.35346,0 0.64,-0.28206 0.64,-0.63 v -21.39 c 0,-0.14852 0.059,-0.29096 0.16402,-0.39598 0.10502,-0.10502 0.24746,-0.16402 0.39598,-0.16402 h 19.25 c 0.25957,0 0.47,0.21043 0.47,0.47 v 21.5 c 0,0.16178 0.0643,0.31694 0.17866,0.43134 0.1144,0.11439 0.26956,0.17866 0.43134,0.17866 h 16.65 c 0.15117,0 0.29616,0.0601 0.40305,0.16695 0.1069,0.10689 0.16695,0.25188 0.16695,0.40305 v 16.51 c 0,0.25405 -0.20595,0.46 -0.46,0.46 h -16.83 c -0.15383,0 -0.30135,0.0601 -0.41012,0.16695 -0.10877,0.10689 -0.16988,0.25188 -0.16988,0.40305 q -0.04,19.49 0,27.88 c 0.03,3.74 0.11,7.81 2.32,10.58 3.31,4.14 10.08,3.97 14.92,2.86 0.1486,-0.0335 0.30437,0.003 0.42313,0.0979 0.11876,0.0954 0.18756,0.23973 0.18687,0.39206 z" stroke-linecap="round" id="path27"/>
</g><g transform="translate(210.21,730.75)" id="g29">
<path style="opacity:1;fill:#cf3339;fill-rule:nonzero;stroke:none;stroke-width:1;stroke-linecap:butt;stroke-linejoin:miter;stroke-miterlimit:4;stroke-dasharray:none;stroke-dashoffset:0" transform="translate(-182.21,-702.75)" d="m 222.8399,702.6791 c 0.0385,22.07474 -18.12086,40.00159 -40.5601,40.0408 -22.43929,0.0392 -40.66116,-17.82422 -40.6997,-39.899 -0.0385,-22.07474 18.12086,-40.00159 40.5601,-40.0408 22.43929,-0.0392 40.66116,17.82422 40.6997,39.899 z m -39.374,-21.2181 c -10.83651,-0.58684 -20.13425,8.41062 -20.7671,20.0964 -0.63286,11.68577 7.63881,21.63471 18.4753,22.2216 10.83651,0.58684 20.13425,-8.41062 20.7671,-20.0964 0.63286,-11.68577 -7.63881,-21.63471 -18.4753,-22.2216 z" stroke-linecap="round" id="path28"/>
</g><g transform="translate(298.76,745.42)" id="g30">
<path style="opacity:1;fill:#cf3339;fill-rule:nonzero;stroke:none;stroke-width:1;stroke-linecap:butt;stroke-linejoin:miter;stroke-miterlimit:4;stroke-dasharray:none;stroke-dashoffset:0" transform="translate(-270.76,-717.42)" d="m 251.07,673.45 c -0.005,0.13784 0.0798,0.26306 0.2092,0.31073 0.12941,0.0477 0.27481,0.007 0.3608,-0.10073 13.54,-16.2 38.71,-13.17 50.59,3.44 q 5.46,7.63 6.88,15.08 c 2.49,13.12 1,26.62 -7.62,37 q -11.62,14.01 -29.75,12.58 c -7.17,-0.56 -16.02,-4.11 -20.17,-10.38 -0.0557,-0.0931 -0.16639,-0.13486 -0.27099,-0.10232 -0.1046,0.0326 -0.1777,0.1315 -0.17901,0.24232 v 39.89 c 0,0.12465 -0.0495,0.2442 -0.13766,0.33234 -0.0881,0.0881 -0.20769,0.13766 -0.33234,0.13766 h -18.8 c -0.29271,0 -0.53,-0.23281 -0.53,-0.52 V 664.97 c 0,-0.20987 0.17013,-0.38 0.38,-0.38 h 18.76 c 0.33689,0 0.61,0.27311 0.61,0.61 z m 19.5211,7.5847 c -5.10431,-0.10693 -10.04709,2.05943 -13.74098,6.02249 -3.69389,3.96306 -5.8363,9.39818 -5.95592,15.10971 -0.11963,5.71151 1.79331,11.23157 5.318,15.34581 3.52469,4.11425 8.3724,6.48568 13.4767,6.59259 5.10431,0.10693 10.04709,-2.05943 13.74098,-6.02249 3.69389,-3.96306 5.8363,-9.39818 5.95592,-15.10971 0.11963,-5.71151 -1.79331,-11.23157 -5.318,-15.34581 -3.52469,-4.11425 -8.3724,-6.48568 -13.4767,-6.59259 z" stroke-linecap="round" id="path29"/>
</g><g transform="translate(579.77,730.38)" id="g31">
<path style="opacity:1;fill:#f1c22f;fill-rule:nonzero;stroke:none;stroke-width:1;stroke-linecap:butt;stroke-linejoin:miter;stroke-miterlimit:4;stroke-dasharray:none;stroke-dashoffset:0" transform="translate(-551.78,-702.38)" d="m 566.98,731.24 c 0.003,-0.11535 -0.0683,-0.2181 -0.17849,-0.25633 -0.1102,-0.0382 -0.23506,-0.004 -0.31151,0.0863 -1.05,1.29 -1.86,2.97 -3.27,4.33 q -7.1,6.81 -19.42,6.83 c -16.2,0.03 -29.72,-10.05 -27.06,-27.55 2.06,-13.54 15.41,-17.48 27.01,-18.31 q 13.85,-0.98 21.2,-1.53 c 0.47692,-0.0311 0.85062,-0.42216 0.86,-0.9 0.16,-7.29 -1.21,-12.33 -9.05,-13.72 -7.91,-1.39 -17.33,-0.31 -19.39,9.11 -0.0933,0.41372 -0.47735,0.69534 -0.9,0.66 l -15.93,-1.25 c -0.25421,-0.0203 -0.4896,-0.14185 -0.65322,-0.33745 -0.16363,-0.19559 -0.24174,-0.44876 -0.21678,-0.70255 q 1.64,-17.41 18.67,-22.49 10.93,-3.26 22.43,-1.51 c 7.01,1.08 15.64,4.83 19.73,10.71 4.47,6.4 5.22,13.83 5.31,21.66 q 0.31,24.56 1.34,44.19 c 0.008,0.18549 -0.0598,0.36626 -0.18824,0.50035 -0.12843,0.13408 -0.30609,0.20983 -0.49176,0.20965 l -18.68,-0.02 c -0.22014,10e-6 -0.43125,-0.0885 -0.58691,-0.24602 -0.15566,-0.15753 -0.2431,-0.37119 -0.24309,-0.59398 z m -0.94,-23.77 c -0.0521,-0.20322 -0.24051,-0.34135 -0.45,-0.33 q -9.58,0.7 -15.84,1.36 c -5.57,0.59 -12.52,2.35 -12.94,8.95 -0.57,9.14 11.72,9.79 17.67,8.18 q 10.16,-2.76 11.44,-13.73 c 0.18,-1.49 0.49,-3.11 0.12,-4.43 z" stroke-linecap="round" id="path30"/>
</g><g transform="translate(716.07,730.37)" id="g32">
<path style="opacity:1;fill:#f1c22f;fill-rule:nonzero;stroke:none;stroke-width:1;stroke-linecap:butt;stroke-linejoin:miter;stroke-miterlimit:4;stroke-dasharray:none;stroke-dashoffset:0" transform="translate(-688.06,-702.37)" d="m 703.32,731.33 c 0.003,-0.11535 -0.0683,-0.2181 -0.17849,-0.25633 -0.1102,-0.0382 -0.23506,-0.004 -0.31151,0.0863 -1.05,1.28 -1.86,2.97 -3.28,4.34 q -7.12,6.84 -19.48,6.87 c -16.27,0.04 -29.84,-10.07 -27.18,-27.64 2.06,-13.59 15.45,-17.55 27.1,-18.39 q 13.89,-1 21.27,-1.55 c 0.4807,-0.0314 0.85579,-0.42829 0.86,-0.91 0.16,-7.31 -1.22,-12.37 -9.09,-13.76 -7.93,-1.39 -17.39,-0.3 -19.46,9.16 -0.0933,0.41372 -0.47735,0.69534 -0.9,0.66 l -15.98,-1.25 c -0.256,-0.0177 -0.49395,-0.1382 -0.65971,-0.33409 -0.16575,-0.1959 -0.24521,-0.45051 -0.22029,-0.70591 q 1.64,-17.47 18.72,-22.58 10.97,-3.28 22.51,-1.53 c 7.04,1.07 15.71,4.84 19.82,10.73 4.49,6.43 5.24,13.88 5.34,21.74 q 0.32,24.65 1.37,44.35 c 0.011,0.18717 -0.0557,0.37059 -0.18445,0.50691 -0.12874,0.13631 -0.30805,0.21341 -0.49555,0.21309 l -18.75,-0.02 c -0.22014,1e-5 -0.43125,-0.0885 -0.58691,-0.24602 -0.15566,-0.15753 -0.2431,-0.37119 -0.24309,-0.59398 z m -0.95,-23.92 c -0.0481,-0.20721 -0.23753,-0.35034 -0.45,-0.34 q -9.64,0.68 -15.94,1.33 c -5.6,0.57 -12.59,2.32 -13.03,8.96 -0.6,9.19 11.75,9.88 17.74,8.28 q 10.23,-2.75 11.55,-13.78 c 0.18,-1.5 0.5,-3.12 0.13,-4.45 z" stroke-linecap="round" id="path31"/>
</g><g transform="translate(801.08,729.99)" id="g33">
<path style="opacity:1;fill:#f1c22f;fill-rule:nonzero;stroke:none;stroke-width:1;stroke-linecap:butt;stroke-linejoin:miter;stroke-miterlimit:4;stroke-dasharray:none;stroke-dashoffset:0" transform="translate(-773.08,-701.99)" d="m 756.33,674.61 c -0.001,0.0818 0.0496,0.15536 0.12673,0.18259 0.0771,0.0272 0.16307,0.002 0.21327,-0.0626 9.24,-12.28 25.58,-15.22 38.66,-7.68 q 8.83,5.08 12.17,15.4 1.33,4.11 1.46,13.56 0.14,10.5 -0.09,44.64 c 0,0.22091 -0.17909,0.4 -0.4,0.4 h -19.4 c -0.11404,0 -0.22342,-0.0453 -0.30406,-0.12594 -0.0806,-0.0806 -0.12594,-0.19002 -0.12594,-0.30406 q 0.19,-19.82 -0.02,-43.35 c -0.05,-6.01 -0.83,-12.31 -6.42,-15.46 q -4.52,-2.54 -11.29,-1.55 -8.07,1.17 -11.27,8.23 -1.69,3.72 -1.75,13.36 -0.07,12.6 0,38.52 c 0,0.37555 -0.30445,0.68 -0.68,0.68 h -19.39 c -0.39765,0 -0.72,-0.32683 -0.72,-0.73 v -75.24 c 0,-0.14056 0.0548,-0.27537 0.1523,-0.37477 0.0975,-0.0994 0.22979,-0.15523 0.3677,-0.15523 h 18.29 c 0.11139,0 0.21822,0.0453 0.29698,0.12594 0.0788,0.0806 0.12302,0.19002 0.12302,0.30406 z" stroke-linecap="round" id="path32"/>
</g><g transform="translate(939.45,730.41)" id="g34">
<path style="opacity:1;fill:#f1c22f;fill-rule:nonzero;stroke:none;stroke-width:1;stroke-linecap:butt;stroke-linejoin:miter;stroke-miterlimit:4;stroke-dasharray:none;stroke-dashoffset:0" transform="translate(-911.44,-702.42)" d="m 926.23,731.22 c -1.05,1.29 -1.86,2.98 -3.28,4.35 q -7.12,6.86 -19.5,6.9 c -16.29,0.05 -29.89,-10.06 -27.24,-27.65 2.05,-13.61 15.46,-17.59 27.12,-18.44 q 13.91,-1.01 21.3,-1.57 c 0.48203,-0.0363 0.85582,-0.43181 0.86,-0.91 0.15,-7.32 -1.23,-12.39 -9.11,-13.77 -7.95,-1.39 -17.42,-0.29 -19.48,9.18 -0.0936,0.41843 -0.47754,0.70423 -0.9,0.67 l -16.01,-1.24 c -0.256,-0.0177 -0.49395,-0.1382 -0.65971,-0.33409 -0.16575,-0.1959 -0.24521,-0.45051 -0.22029,-0.70591 q 1.63,-17.5 18.73,-22.63 10.98,-3.29 22.54,-1.55 c 7.05,1.07 15.73,4.83 19.85,10.73 4.5,6.43 5.26,13.89 5.37,21.76 q 0.34,24.68 1.41,44.41 c 0.011,0.18717 -0.0557,0.37059 -0.18445,0.50691 -0.12874,0.13631 -0.30805,0.21341 -0.49555,0.21309 h -18.78 c -0.4584,0 -0.83,-0.37608 -0.83,-0.84 v -8.91 c 0.003,-0.11538 -0.0683,-0.21815 -0.17847,-0.25639 -0.11021,-0.0382 -0.23509,-0.004 -0.31153,0.0864 z m -0.49,-23.77 c -0.0521,-0.20322 -0.24051,-0.34135 -0.45,-0.33 q -9.67,0.62 -15.99,1.23 c -5.62,0.55 -12.64,2.26 -13.12,8.92 -0.66,9.21 11.73,9.97 17.75,8.4 q 10.27,-2.7 11.65,-13.75 c 0.19,-1.5 0.52,-3.13 0.16,-4.47 z" stroke-linecap="round" id="path33"/>
</g><g transform="translate(497.49,731.81)" id="g35">
<path style="opacity:1;fill:#f1c22f;fill-rule:nonzero;stroke:none;stroke-width:1;stroke-linecap:butt;stroke-linejoin:miter;stroke-miterlimit:4;stroke-dasharray:none;stroke-dashoffset:0" transform="translate(-469.49,-703.45)" d="m 485.55,730.82 c -0.001,-0.12685 -0.0847,-0.23819 -0.20618,-0.27486 -0.12144,-0.0367 -0.25262,0.01 -0.32382,0.11486 -6.31,9.54 -16.49,12.58 -27.67,11.38 -10.22,-1.1 -18.72,-7.77 -22.07,-17.39 q -1.58,-4.53 -1.43,-14.92 0.18,-13.05 0.01,-44.61 c -0.003,-0.13433 0.0488,-0.26409 0.14286,-0.36004 0.0941,-0.0959 0.22278,-0.14999 0.35714,-0.14996 h 19.12 c 0.33689,0 0.61,0.27311 0.61,0.61 q -0.07,17.3 -0.01,39.27 c 0.02,9.59 2.25,19.36 13.62,20.29 8.14,0.66 14.76,-4.06 16.9,-12.3 q 0.37,-1.41 0.37,-9.47 -0.02,-33.62 0.01,-37.81 c 0,-0.15648 0.0622,-0.30655 0.17281,-0.41719 0.11064,-0.11065 0.26071,-0.17281 0.41719,-0.17281 h 19.16 c 0.122,0 0.239,0.0485 0.32527,0.13473 0.0863,0.0863 0.13473,0.20327 0.13473,0.32527 v 75.58 c 0,0.22644 -0.18804,0.41 -0.42,0.41 h -18.63 c -0.32585,0 -0.59,-0.26415 -0.59,-0.59 z" stroke-linecap="round" id="path34"/>
</g><g transform="translate(652.53,730.44)" id="g36">
<path style="opacity:1;fill:#f1c22f;fill-rule:nonzero;stroke:none;stroke-width:1;stroke-linecap:butt;stroke-linejoin:miter;stroke-miterlimit:4;stroke-dasharray:none;stroke-dashoffset:0" transform="translate(-624.53,-702.45)" d="m 621.05,672.74 c -0.002,0.16114 0.10145,0.30472 0.25455,0.35499 0.15311,0.0503 0.32114,-0.004 0.41545,-0.13499 q 3.62,-4.85 9.17,-6.83 7.88,-2.8 16.64,-1.23 c 0.348,0.063 0.60081,0.36635 0.6,0.72 v 17.92 c 0.002,0.12828 -0.0622,0.24856 -0.17016,0.31784 -0.10799,0.0693 -0.24416,0.0777 -0.35984,0.0222 q -5.93,-2.83 -13,-1.99 c -14.21,1.67 -13.47,15.13 -13.36,26.88 q 0.17,19.46 0.13,31.92 c 0,0.19882 -0.16118,0.36 -0.36,0.36 h -19.45 c -0.34794,0 -0.63,-0.28206 -0.63,-0.63 v -75.44 c 0,-0.11139 0.0443,-0.21822 0.12302,-0.29698 0.0788,-0.0788 0.18559,-0.12302 0.29698,-0.12302 h 19.11 c 0.32585,0 0.59,0.26863 0.59,0.6 z" stroke-linecap="round" id="path35"/>
</g></g></svg>